<?xml version="1.0" encoding="UTF-8"?>
<svg xmlns="http://www.w3.org/2000/svg" xmlns:xlink="http://www.w3.org/1999/xlink" width="810pt" height="809.999993pt" viewBox="0 0 810 809.999993" version="1.2">
<defs>
<clipPath id="clip1">
  <path d="M 165.253906 253 L 650.421875 253 L 650.421875 803.535156 L 165.253906 803.535156 Z M 165.253906 253 "/>
</clipPath>
<clipPath id="clip2">
  <path d="M 159.636719 289 L 333.699219 289 L 333.699219 638.597656 L 159.636719 638.597656 Z M 159.636719 289 "/>
</clipPath>
<clipPath id="clip3">
  <path d="M 528.507812 168 L 599.757812 168 L 599.757812 264.59375 L 528.507812 264.59375 Z M 528.507812 168 "/>
</clipPath>
<clipPath id="clip4">
  <path d="M 555 153.59375 L 573 153.59375 L 573 163 L 555 163 Z M 555 153.59375 "/>
</clipPath>
<clipPath id="clip5">
  <path d="M 369.722656 112.023438 L 471.722656 112.023438 L 471.722656 145 L 369.722656 145 Z M 369.722656 112.023438 "/>
</clipPath>
<clipPath id="clip6">
  <path d="M 407 160 L 435 160 L 435 187.773438 L 407 187.773438 Z M 407 160 "/>
</clipPath>
</defs>
<g id="surface1">
<path style=" stroke:none;fill-rule:nonzero;fill:rgb(20.388794%,20.388794%,20.388794%);fill-opacity:1;" d="M 266.8125 228.371094 C 304.929688 229.894531 316.109375 246.148438 316.875 254.027344 C 317.632812 261.894531 290.195312 317.523438 290.195312 317.523438 L 252.585938 315.234375 C 252.585938 315.234375 245.46875 301.011719 237.59375 284.757812 C 229.71875 268.5 228.699219 226.847656 266.8125 228.371094 Z M 422.539062 445.527344 L 453.902344 323.613281 C 455.054688 319.128906 459.09375 315.992188 463.730469 315.976562 L 631.203125 315.527344 C 638.03125 315.507812 642.9375 322.078125 640.980469 328.613281 L 604.390625 450.976562 C 603.101562 455.285156 599.140625 458.234375 594.640625 458.234375 L 432.394531 458.234375 C 425.746094 458.234375 420.886719 451.964844 422.539062 445.527344 Z M 351.8125 783.601562 L 376.71875 797.007812 C 376.632812 798.582031 376.582031 800.128906 376.582031 801.636719 L 457.386719 801.636719 C 457.386719 801.636719 447.21875 786.394531 426.386719 786.394531 C 405.550781 786.394531 407.074219 772.171875 407.074219 772.171875 L 381.257812 763.789062 C 381.257812 763.789062 380.238281 765.074219 379.777344 767.046875 L 362.863281 761.125 C 362.863281 761.125 354.476562 770.269531 351.8125 783.601562 "/>
<path style=" stroke:none;fill-rule:nonzero;fill:rgb(100%,100%,100%);fill-opacity:1;" d="M 348.632812 509.542969 L 455.351562 509.542969 L 455.351562 505.984375 L 498.179688 505.984375 C 508.058594 505.984375 515.203125 496.554688 512.527344 487.050781 L 504.339844 457.980469 L 433.15625 457.980469 C 426.582031 457.980469 421.765625 451.777344 423.40625 445.414062 L 427.671875 428.839844 L 609.84375 428.839844 L 603.277344 450.800781 C 602.003906 455.0625 598.078125 457.980469 593.628906 457.980469 L 560.363281 457.980469 L 568.996094 489.980469 C 571.65625 499.84375 564.222656 509.542969 554.003906 509.542969 L 649.429688 509.542969 L 649.429688 552.214844 L 348.632812 552.214844 Z M 179.917969 554.242188 L 284.09375 540.023438 C 284.09375 540.023438 403.519531 571.011719 432.484375 577.609375 C 461.449219 584.214844 477.714844 604.535156 466.53125 642.128906 C 455.351562 679.71875 421.8125 776.238281 421.8125 776.238281 L 380.894531 764.289062 L 379.441406 767.628906 L 352.191406 758.457031 L 379.015625 631.460938 C 363.441406 631.460938 340.378906 631.460938 306.453125 631.460938 C 215.996094 631.460938 179.152344 644.160156 179.917969 554.242188 Z M 478.265625 381.03125 C 480.765625 375.300781 483.550781 369.785156 486.484375 364.511719 L 478.222656 381.277344 C 478.222656 381.277344 478.242188 381.175781 478.265625 381.03125 Z M 526.5 311.171875 L 450.777344 311.171875 C 450.777344 311.171875 429.820312 320.8125 414.695312 350.539062 C 399.449219 380.511719 392.339844 416.582031 392.339844 416.582031 L 467.808594 416.582031 C 468.023438 415.011719 468.292969 413.445312 468.582031 411.882812 L 480.257812 425.976562 C 480.257812 425.976562 481.78125 424.453125 493.722656 404.894531 C 505.472656 385.648438 487.46875 364.453125 486.886719 363.78125 C 504.230469 332.890625 526.5 311.171875 526.5 311.171875 Z M 319.558594 305.652344 L 326.269531 305.835938 L 319.023438 295.359375 L 316.875 254.027344 L 300.863281 261.390625 C 300.863281 261.390625 301.371094 280.1875 287.144531 287.550781 L 282.570312 273.070312 C 282.570312 273.070312 269.867188 271.546875 270.371094 283.234375 C 270.480469 285.734375 271.101562 287.980469 272.011719 289.96875 C 277.628906 302.203125 268.839844 316.484375 255.402344 315.601562 C 254.476562 315.542969 253.542969 315.421875 252.585938 315.234375 L 251.316406 333.527344 L 284.347656 340.128906 L 284.09375 327.171875 L 295.027344 331.484375 C 307.390625 336.359375 320.660156 326.824219 319.96875 313.550781 L 319.558594 305.652344 "/>
<path style=" stroke:none;fill-rule:nonzero;fill:rgb(100%,8.628845%,8.628845%);fill-opacity:1;" d="M 304.929688 545.480469 L 323.222656 432.328125 C 323.222656 432.328125 380.648438 486.683594 394.371094 498.875 C 408.09375 511.066406 426.894531 513.609375 441.632812 494.300781 C 456.371094 474.996094 493.46875 418.105469 493.46875 418.105469 L 462.972656 405.402344 L 419.273438 461.28125 C 419.273438 461.28125 355.242188 395.246094 338.976562 379.496094 C 322.71875 363.75 291.71875 352.0625 291.71875 352.0625 L 289.175781 338.859375 L 250.042969 321.585938 L 244.453125 341.90625 C 244.453125 341.90625 219.042969 356.640625 207.867188 363.238281 C 196.6875 369.84375 193.636719 384.070312 191.09375 403.878906 C 188.554688 423.691406 176.359375 531.894531 174.832031 552.71875 C 173.308594 573.550781 230.222656 606.058594 293.242188 543.574219 L 304.929688 545.480469 "/>
<g clip-path="url(#clip1)" clip-rule="nonzero">
<path style=" stroke:none;fill-rule:nonzero;fill:rgb(20.388794%,20.388794%,20.388794%);fill-opacity:1;" d="M 488.082031 363.679688 C 490.964844 367.296875 505.648438 387.261719 494.566406 405.414062 C 492.890625 408.160156 491.425781 410.230469 490.136719 412.054688 C 489.242188 413.316406 488.4375 414.449219 487.714844 415.609375 C 487.523438 415.902344 487.199219 416.070312 486.871094 416.070312 C 486.6875 416.070312 486.507812 416.019531 486.339844 415.917969 C 485.878906 415.625 485.738281 415.015625 486.03125 414.550781 C 486.777344 413.367188 487.601562 412.199219 488.515625 410.90625 C 489.789062 409.109375 491.234375 407.066406 492.875 404.378906 C 502.738281 388.230469 490.65625 370.308594 487.058594 365.589844 L 479.113281 381.710938 C 478.890625 382.15625 478.382812 382.371094 477.914062 382.214844 C 477.441406 382.0625 477.15625 381.585938 477.246094 381.101562 C 477.265625 381 479.046875 371.085938 480.566406 365.277344 C 481.125 363.132812 480.703125 361.929688 480.039062 361.6875 C 479.253906 361.410156 477.902344 362.179688 477.089844 363.917969 C 475.859375 366.519531 475.625 366.960938 474.082031 369.835938 C 473.039062 371.777344 471.390625 374.847656 468.429688 380.464844 C 461.421875 393.75 469.121094 406.5 469.203125 406.625 C 469.492188 407.09375 469.34375 407.699219 468.882812 407.992188 C 468.417969 408.28125 467.808594 408.136719 467.519531 407.667969 C 467.171875 407.113281 459.128906 393.851562 466.671875 379.542969 C 469.640625 373.917969 471.292969 370.839844 472.335938 368.894531 C 473.890625 366 474.089844 365.628906 475.289062 363.074219 C 476.667969 360.152344 479.066406 359.230469 480.710938 359.828125 C 482.179688 360.359375 483.417969 362.203125 482.488281 365.777344 C 481.921875 367.933594 481.324219 370.660156 480.789062 373.234375 C 482.347656 370.0625 483.976562 366.953125 485.664062 363.933594 L 485.972656 363.308594 C 486.003906 363.25 486.058594 363.210938 486.101562 363.15625 C 500.605469 337.40625 518.621094 317.867188 524.132812 312.164062 L 451.003906 312.164062 C 448.90625 313.210938 429.625 323.386719 415.582031 350.988281 C 402.117188 377.46875 394.9375 409.128906 393.558594 415.589844 L 453.816406 415.589844 C 454.363281 415.589844 454.808594 416.035156 454.808594 416.582031 C 454.808594 417.125 454.363281 417.570312 453.816406 417.570312 L 392.339844 417.570312 C 392.042969 417.570312 391.757812 417.4375 391.570312 417.210938 C 391.382812 416.980469 391.308594 416.675781 391.363281 416.390625 C 391.433594 416.027344 398.683594 379.839844 413.816406 350.09375 C 428.921875 320.394531 449.496094 310.667969 450.367188 310.269531 C 450.496094 310.210938 450.632812 310.183594 450.777344 310.183594 L 526.5 310.183594 C 526.90625 310.183594 527.265625 310.421875 527.417969 310.796875 C 527.570312 311.171875 527.480469 311.597656 527.191406 311.882812 C 526.945312 312.121094 505.140625 333.558594 488.082031 363.679688 Z M 424.417969 454.691406 C 422.304688 451.972656 421.585938 448.5 422.449219 445.164062 L 426.707031 428.589844 C 426.84375 428.058594 427.378906 427.742188 427.914062 427.878906 C 428.445312 428.015625 428.769531 428.554688 428.628906 429.082031 L 424.367188 445.660156 C 423.660156 448.394531 424.25 451.242188 425.984375 453.476562 Z M 178.460938 769.65625 L 223.070312 632.261719 C 223.195312 631.867188 223.066406 631.457031 222.769531 631.203125 C 236.285156 633.390625 253.144531 633.207031 273.699219 632.847656 C 273.269531 633.050781 273.03125 633.527344 273.167969 633.996094 L 312.777344 769.65625 L 249.511719 769.65625 L 249.511719 636.539062 C 249.511719 635.992188 249.070312 635.546875 248.519531 635.546875 C 247.972656 635.546875 247.527344 635.992188 247.527344 636.539062 L 247.527344 769.65625 Z M 380.398438 632.453125 L 408.847656 632.453125 L 375.625 762.789062 C 375.488281 763.300781 375.792969 763.828125 376.304688 763.976562 L 379.265625 764.84375 L 378.578125 766.394531 L 353.347656 757.804688 Z M 538.71875 510.558594 L 538.71875 551.222656 L 349.625 551.222656 L 349.625 510.53125 L 538.726562 510.53125 C 538.726562 510.542969 538.71875 510.550781 538.71875 510.558594 Z M 540.703125 551.222656 L 540.703125 510.558594 C 540.703125 510.550781 540.699219 510.542969 540.699219 510.53125 L 648.4375 510.53125 L 648.4375 551.222656 Z M 554.003906 508.550781 L 456.34375 508.550781 L 456.34375 506.976562 L 498.179688 506.976562 C 503.203125 506.976562 507.820312 504.683594 510.855469 500.679688 C 513.882812 496.679688 514.84375 491.617188 513.480469 486.785156 L 505.648438 458.972656 L 559.390625 458.972656 L 568.039062 490.246094 C 569.222656 494.640625 568.316406 499.238281 565.539062 502.859375 C 562.769531 506.476562 558.5625 508.550781 554.003906 508.550781 Z M 166.652344 802.835938 C 166.746094 802.867188 166.855469 802.878906 166.957031 802.878906 C 167.375 802.878906 167.761719 802.617188 167.898438 802.195312 L 177.816406 771.640625 L 247.527344 771.640625 L 247.527344 802.652344 C 247.527344 803.199219 247.972656 803.644531 248.519531 803.644531 C 249.070312 803.644531 249.511719 803.199219 249.511719 802.652344 L 249.511719 771.640625 L 313.355469 771.640625 L 322.273438 802.167969 C 322.398438 802.597656 322.796875 802.878906 323.222656 802.878906 C 323.316406 802.878906 323.40625 802.867188 323.5 802.839844 C 324.027344 802.6875 324.328125 802.140625 324.175781 801.613281 L 315.320312 771.296875 C 315.476562 771.121094 315.578125 770.898438 315.578125 770.648438 C 315.578125 770.199219 315.269531 769.832031 314.859375 769.710938 L 275.070312 633.441406 C 274.992188 633.15625 274.785156 632.949219 274.53125 632.832031 C 275.230469 632.816406 275.925781 632.804688 276.636719 632.789062 C 286.046875 632.628906 295.777344 632.453125 306.453125 632.453125 L 347.640625 632.453125 L 347.640625 801.890625 C 347.640625 802.4375 348.085938 802.878906 348.632812 802.878906 C 349.179688 802.878906 349.625 802.4375 349.625 801.890625 L 349.625 632.453125 L 378.367188 632.453125 L 351.222656 758.25 C 351.117188 758.738281 351.394531 759.234375 351.871094 759.398438 L 378.792969 768.566406 C 378.902344 768.601562 379.007812 768.617188 379.113281 768.617188 C 379.492188 768.617188 379.855469 768.398438 380.023438 768.03125 L 381.183594 765.40625 L 421.535156 777.1875 C 421.628906 777.214844 421.71875 777.230469 421.8125 777.230469 C 422.226562 777.230469 422.605469 776.96875 422.75 776.5625 C 423.085938 775.59375 456.425781 679.59375 467.484375 642.410156 C 472.863281 624.324219 472.207031 609.363281 465.535156 597.945312 C 459.355469 587.371094 448.308594 580.203125 432.707031 576.648438 C 417.859375 573.261719 381.421875 564.140625 349.625 556.105469 L 349.625 553.207031 L 538.71875 553.207031 L 538.71875 801.890625 C 538.71875 802.4375 539.164062 802.878906 539.710938 802.878906 C 540.257812 802.878906 540.703125 802.4375 540.703125 801.890625 L 540.703125 553.207031 L 648.4375 553.207031 L 648.4375 801.890625 C 648.4375 802.4375 648.882812 802.878906 649.429688 802.878906 C 649.976562 802.878906 650.421875 802.4375 650.421875 801.890625 L 650.421875 509.542969 C 650.421875 508.996094 649.976562 508.550781 649.429688 508.550781 L 561.828125 508.550781 C 563.855469 507.460938 565.660156 505.957031 567.117188 504.0625 C 570.265625 499.949219 571.300781 494.722656 569.953125 489.722656 L 561.449219 458.972656 L 593.628906 458.972656 C 598.480469 458.972656 602.835938 455.730469 604.226562 451.082031 L 610.792969 429.125 C 610.949219 428.601562 610.652344 428.042969 610.125 427.886719 C 609.605469 427.734375 609.050781 428.03125 608.894531 428.554688 L 602.328125 450.519531 C 601.1875 454.324219 597.609375 456.988281 593.628906 456.988281 L 467.851562 456.988281 L 466.371094 458.972656 L 503.589844 458.972656 L 511.570312 487.324219 C 512.761719 491.546875 511.925781 495.984375 509.273438 499.484375 C 506.617188 502.988281 502.578125 504.992188 498.179688 504.992188 L 455.351562 504.992188 C 454.804688 504.992188 454.359375 505.4375 454.359375 505.984375 L 454.359375 508.550781 L 348.632812 508.550781 C 348.085938 508.550781 347.640625 508.996094 347.640625 509.542969 L 347.640625 555.605469 C 318.984375 548.355469 294.59375 542.121094 294.082031 541.988281 C 293.542969 541.847656 293.011719 542.171875 292.875 542.699219 C 292.738281 543.234375 293.058594 543.769531 293.589844 543.910156 C 294.683594 544.191406 403.617188 572.046875 432.265625 578.578125 C 447.3125 582.007812 457.929688 588.863281 463.828125 598.945312 C 470.207031 609.871094 470.800781 624.304688 465.582031 641.84375 C 455.105469 677.066406 424.597656 765.183594 421.1875 775.019531 L 377.777344 762.347656 L 411.085938 631.707031 C 411.160156 631.410156 411.09375 631.09375 410.910156 630.855469 C 410.71875 630.609375 410.433594 630.46875 410.125 630.46875 L 306.453125 630.46875 C 295.757812 630.46875 286.019531 630.640625 276.597656 630.808594 C 237.15625 631.515625 211.101562 631.980469 196.363281 617.382812 C 185.394531 606.523438 180.628906 587.054688 180.902344 554.253906 C 180.910156 553.707031 180.46875 553.257812 179.921875 553.253906 C 179.921875 553.253906 179.917969 553.253906 179.910156 553.253906 C 179.371094 553.253906 178.925781 553.691406 178.921875 554.238281 C 178.636719 587.617188 183.585938 607.527344 194.96875 618.792969 C 201.699219 625.460938 210.570312 629.109375 221.78125 631.042969 C 221.507812 631.152344 221.28125 631.355469 221.183594 631.652344 L 166.011719 801.582031 C 165.84375 802.101562 166.125 802.664062 166.652344 802.835938 Z M 451.722656 421.785156 L 480.691406 436.011719 C 481.183594 436.25 481.386719 436.84375 481.148438 437.335938 C 480.972656 437.6875 480.617188 437.890625 480.253906 437.890625 C 480.109375 437.890625 479.960938 437.859375 479.816406 437.789062 L 450.851562 423.566406 C 450.359375 423.324219 450.15625 422.730469 450.398438 422.242188 C 450.632812 421.75 451.230469 421.546875 451.722656 421.785156 Z M 292.667969 352.347656 C 292.542969 352.777344 292.144531 353.054688 291.71875 353.054688 C 291.625 353.054688 291.527344 353.046875 291.433594 353.015625 L 248.238281 340.316406 C 247.714844 340.164062 247.414062 339.613281 247.566406 339.085938 C 247.722656 338.5625 248.277344 338.253906 248.800781 338.417969 L 291.996094 351.113281 C 292.519531 351.265625 292.820312 351.816406 292.667969 352.347656 Z M 326.242188 306.828125 L 320.605469 306.671875 L 320.960938 313.5 C 321.304688 320.070312 318.316406 326.285156 312.972656 330.125 C 307.632812 333.972656 300.785156 334.824219 294.660156 332.40625 L 285.109375 328.644531 L 285.277344 337.015625 C 285.285156 337.5625 284.855469 338.015625 284.304688 338.023438 C 284.300781 338.023438 284.292969 338.023438 284.285156 338.023438 C 283.746094 338.023438 283.308594 337.59375 283.292969 337.050781 L 283.097656 327.195312 C 283.09375 326.863281 283.253906 326.550781 283.527344 326.359375 C 283.800781 326.171875 284.148438 326.132812 284.457031 326.25 L 295.386719 330.5625 C 300.875 332.730469 307.023438 331.964844 311.8125 328.519531 C 316.605469 325.074219 319.289062 319.496094 318.984375 313.601562 L 318.570312 305.703125 C 318.554688 305.425781 318.65625 305.15625 318.851562 304.957031 C 319.042969 304.757812 319.359375 304.652344 319.585938 304.660156 L 324.34375 304.789062 L 318.207031 295.925781 C 318.101562 295.773438 318.042969 295.597656 318.03125 295.410156 L 317.132812 278.199219 C 317.121094 278.296875 317.101562 278.394531 317.054688 278.488281 C 316.796875 278.96875 316.191406 279.15625 315.714844 278.902344 C 315.582031 278.839844 312.484375 277.277344 309.957031 281.226562 C 309.765625 281.519531 309.445312 281.683594 309.121094 281.683594 C 308.9375 281.683594 308.757812 281.632812 308.585938 281.53125 C 308.125 281.234375 307.992188 280.621094 308.289062 280.160156 C 311.085938 275.785156 314.96875 276.277344 316.632812 277.148438 C 316.871094 277.273438 317.03125 277.476562 317.109375 277.710938 L 315.957031 255.535156 L 301.855469 262.023438 C 301.808594 265.535156 300.855469 281.566406 287.597656 288.429688 C 287.339844 288.566406 287.035156 288.578125 286.765625 288.46875 C 286.492188 288.351562 286.289062 288.128906 286.199219 287.847656 L 281.824219 274.015625 C 280.273438 273.945312 276.222656 274.035156 273.660156 276.414062 C 272.007812 277.953125 271.238281 280.234375 271.363281 283.1875 C 271.460938 285.375 271.980469 287.519531 272.914062 289.554688 C 275.792969 295.824219 275.171875 303.207031 271.296875 308.824219 C 267.601562 314.183594 261.773438 317.015625 255.339844 316.59375 C 254.726562 316.550781 254.109375 316.484375 253.5 316.398438 L 253.078125 322.464844 C 253.039062 323.011719 252.5625 323.390625 252.019531 323.386719 C 251.46875 323.347656 251.0625 322.875 251.097656 322.328125 L 251.59375 315.164062 C 251.613281 314.882812 251.757812 314.625 251.980469 314.453125 C 252.207031 314.277344 252.484375 314.207031 252.777344 314.261719 C 253.660156 314.433594 254.570312 314.554688 255.472656 314.609375 C 261.183594 314.996094 266.375 312.46875 269.667969 307.699219 C 273.140625 302.65625 273.699219 296.023438 271.113281 290.382812 C 270.070312 288.105469 269.484375 285.714844 269.382812 283.277344 C 269.226562 279.703125 270.21875 276.90625 272.320312 274.953125 C 276.203125 271.359375 282.417969 272.0625 282.6875 272.089844 C 283.074219 272.136719 283.394531 272.40625 283.515625 272.773438 L 287.722656 286.097656 C 300.167969 278.746094 299.878906 261.59375 299.875 261.414062 C 299.863281 261.019531 300.085938 260.652344 300.449219 260.488281 L 316.457031 253.121094 C 316.753906 252.988281 317.101562 253.007812 317.382812 253.171875 C 317.667969 253.34375 317.84375 253.644531 317.859375 253.976562 L 319.996094 295.03125 L 327.085938 305.273438 C 327.300781 305.582031 327.324219 305.980469 327.148438 306.308594 C 326.964844 306.640625 326.640625 306.828125 326.242188 306.828125 Z M 309.355469 309.066406 C 312.035156 312.757812 315.632812 312.84375 315.792969 312.84375 C 316.339844 312.851562 316.78125 313.289062 316.78125 313.835938 C 316.78125 314.386719 316.339844 314.828125 315.792969 314.828125 C 315.601562 314.828125 311.054688 314.777344 307.746094 310.226562 C 307.425781 309.789062 307.523438 309.167969 307.96875 308.847656 C 308.410156 308.527344 309.03125 308.621094 309.355469 309.066406 Z M 304.21875 413.855469 C 303.835938 414.25 303.84375 414.875 304.238281 415.261719 L 322.53125 433.039062 C 322.726562 433.226562 322.972656 433.320312 323.222656 433.320312 C 323.480469 433.320312 323.742188 433.21875 323.9375 433.019531 C 324.316406 432.625 324.304688 432 323.917969 431.621094 L 305.617188 413.839844 C 305.226562 413.457031 304.597656 413.46875 304.21875 413.855469 "/>
</g>
<g clip-path="url(#clip2)" clip-rule="nonzero">
<path style=" stroke:none;fill-rule:nonzero;fill:rgb(20.388794%,20.388794%,20.388794%);fill-opacity:1;" d="M 313.0625 292.378906 C 312.21875 292.378906 311.535156 291.695312 311.535156 290.851562 C 311.535156 290.011719 312.21875 289.328125 313.0625 289.328125 C 313.902344 289.328125 314.585938 290.011719 314.585938 290.851562 C 314.585938 291.695312 313.902344 292.378906 313.0625 292.378906 Z M 204.816406 638.066406 C 256.765625 638.066406 308.074219 637.425781 327.136719 637.164062 C 331.5 637.097656 334.546875 632.691406 332.910156 628.648438 C 330.492188 622.679688 325.183594 615.710938 313.570312 615.710938 C 293.242188 615.710938 287.648438 615.710938 272.40625 615.710938 C 241.40625 615.710938 232.765625 537.988281 206.847656 537.988281 C 196.175781 537.988281 183.46875 537.988281 172.289062 537.988281 C 161.113281 537.988281 139.261719 638.066406 204.816406 638.066406 "/>
</g>
<g clip-path="url(#clip3)" clip-rule="nonzero">
<path style=" stroke:none;fill-rule:nonzero;fill:rgb(100%,100%,100%);fill-opacity:1;" d="M 595.417969 168.410156 L 588.128906 168.410156 L 588.128906 171.640625 L 595.417969 171.640625 C 595.949219 171.640625 596.394531 172.085938 596.394531 172.613281 L 596.394531 260.390625 C 596.394531 260.917969 595.949219 261.359375 595.417969 261.359375 L 532.847656 261.359375 C 532.320312 261.359375 531.871094 260.917969 531.871094 260.390625 L 531.871094 172.613281 C 531.871094 172.085938 532.320312 171.640625 532.847656 171.640625 L 540.527344 171.640625 L 540.527344 168.410156 L 532.847656 168.410156 C 530.515625 168.410156 528.621094 170.292969 528.621094 172.613281 L 528.621094 260.390625 C 528.621094 262.707031 530.515625 264.59375 532.847656 264.59375 L 595.417969 264.59375 C 597.75 264.59375 599.648438 262.707031 599.648438 260.390625 L 599.648438 172.613281 C 599.648438 170.292969 597.75 168.410156 595.417969 168.410156 Z M 595.417969 168.410156 "/>
</g>
<path style=" stroke:none;fill-rule:nonzero;fill:rgb(100%,100%,100%);fill-opacity:1;" d="M 543.777344 164.789062 C 543.777344 164.261719 544.226562 163.816406 544.753906 163.816406 L 583.902344 163.816406 C 584.429688 163.816406 584.875 164.261719 584.875 164.789062 L 584.875 168.40625 L 588.128906 168.40625 L 588.128906 164.789062 C 588.128906 162.472656 586.230469 160.585938 583.902344 160.585938 L 544.753906 160.585938 C 542.425781 160.585938 540.527344 162.472656 540.527344 164.789062 L 540.527344 168.40625 L 543.777344 168.40625 Z M 543.777344 164.789062 "/>
<path style=" stroke:none;fill-rule:nonzero;fill:rgb(100%,100%,100%);fill-opacity:1;" d="M 584.878906 176.285156 C 584.878906 176.8125 584.429688 177.253906 583.902344 177.253906 L 544.753906 177.253906 C 544.226562 177.253906 543.777344 176.8125 543.777344 176.285156 L 543.777344 171.640625 L 540.527344 171.640625 L 540.527344 176.285156 C 540.527344 178.601562 542.425781 180.488281 544.753906 180.488281 L 583.902344 180.488281 C 586.230469 180.488281 588.128906 178.601562 588.128906 176.285156 L 588.128906 171.640625 L 584.875 171.640625 L 584.875 176.285156 Z M 584.878906 176.285156 "/>
<path style=" stroke:none;fill-rule:nonzero;fill:rgb(100%,100%,100%);fill-opacity:1;" d="M 540.527344 168.410156 L 543.777344 168.410156 L 543.777344 171.640625 L 540.527344 171.640625 Z M 540.527344 168.410156 "/>
<path style=" stroke:none;fill-rule:nonzero;fill:rgb(100%,100%,100%);fill-opacity:1;" d="M 584.878906 168.410156 L 588.128906 168.410156 L 588.128906 171.640625 L 584.878906 171.640625 Z M 584.878906 168.410156 "/>
<g clip-path="url(#clip4)" clip-rule="nonzero">
<path style=" stroke:none;fill-rule:nonzero;fill:rgb(100%,100%,100%);fill-opacity:1;" d="M 572.792969 162.203125 L 569.542969 162.203125 C 569.542969 159.238281 567.117188 156.828125 564.132812 156.828125 C 561.152344 156.828125 558.726562 159.238281 558.726562 162.203125 L 555.476562 162.203125 C 555.472656 157.457031 559.359375 153.59375 564.132812 153.59375 C 568.910156 153.59375 572.792969 157.457031 572.792969 162.203125 Z M 572.792969 162.203125 "/>
</g>
<path style=" stroke:none;fill-rule:nonzero;fill:rgb(100%,100%,100%);fill-opacity:1;" d="M 588.082031 199.589844 L 557.097656 199.589844 C 556.203125 199.589844 555.472656 198.863281 555.472656 197.972656 C 555.472656 197.078125 556.203125 196.355469 557.097656 196.355469 L 588.082031 196.355469 C 588.980469 196.355469 589.707031 197.078125 589.707031 197.972656 C 589.707031 198.863281 588.980469 199.589844 588.082031 199.589844 Z M 588.082031 199.589844 "/>
<path style=" stroke:none;fill-rule:nonzero;fill:rgb(100%,100%,100%);fill-opacity:1;" d="M 588.082031 209.914062 L 557.097656 209.914062 C 556.203125 209.914062 555.472656 209.191406 555.472656 208.296875 C 555.472656 207.40625 556.203125 206.679688 557.097656 206.679688 L 588.082031 206.679688 C 588.980469 206.679688 589.707031 207.40625 589.707031 208.296875 C 589.707031 209.191406 588.980469 209.914062 588.082031 209.914062 Z M 588.082031 209.914062 "/>
<path style=" stroke:none;fill-rule:nonzero;fill:rgb(100%,100%,100%);fill-opacity:1;" d="M 588.082031 220.238281 L 557.097656 220.238281 C 556.203125 220.238281 555.472656 219.515625 555.472656 218.621094 C 555.472656 217.730469 556.203125 217.003906 557.097656 217.003906 L 588.082031 217.003906 C 588.980469 217.003906 589.707031 217.730469 589.707031 218.621094 C 589.707031 219.515625 588.980469 220.238281 588.082031 220.238281 Z M 588.082031 220.238281 "/>
<path style=" stroke:none;fill-rule:nonzero;fill:rgb(100%,100%,100%);fill-opacity:1;" d="M 588.082031 230.566406 L 557.097656 230.566406 C 556.203125 230.566406 555.472656 229.839844 555.472656 228.949219 C 555.472656 228.054688 556.203125 227.332031 557.097656 227.332031 L 588.082031 227.332031 C 588.980469 227.332031 589.707031 228.054688 589.707031 228.949219 C 589.707031 229.839844 588.980469 230.566406 588.082031 230.566406 Z M 588.082031 230.566406 "/>
<path style=" stroke:none;fill-rule:nonzero;fill:rgb(100%,100%,100%);fill-opacity:1;" d="M 588.082031 240.890625 L 557.097656 240.890625 C 556.203125 240.890625 555.472656 240.167969 555.472656 239.273438 C 555.472656 238.382812 556.203125 237.65625 557.097656 237.65625 L 588.082031 237.65625 C 588.980469 237.65625 589.707031 238.382812 589.707031 239.273438 C 589.707031 240.167969 588.980469 240.890625 588.082031 240.890625 Z M 588.082031 240.890625 "/>
<path style=" stroke:none;fill-rule:nonzero;fill:rgb(100%,100%,100%);fill-opacity:1;" d="M 540.351562 202.882812 C 539.9375 202.882812 539.519531 202.726562 539.203125 202.410156 L 536.175781 199.398438 C 535.539062 198.765625 535.539062 197.742188 536.175781 197.113281 C 536.8125 196.480469 537.839844 196.480469 538.476562 197.113281 L 540.355469 198.980469 L 545.835938 193.535156 C 546.46875 192.902344 547.5 192.902344 548.132812 193.535156 C 548.769531 194.164062 548.769531 195.1875 548.132812 195.820312 L 541.503906 202.410156 C 541.1875 202.722656 540.769531 202.882812 540.351562 202.882812 Z M 540.351562 202.882812 "/>
<path style=" stroke:none;fill-rule:nonzero;fill:rgb(100%,100%,100%);fill-opacity:1;" d="M 540.613281 213.207031 C 540.183594 213.207031 539.769531 213.039062 539.464844 212.734375 L 536.4375 209.722656 C 535.800781 209.089844 535.800781 208.066406 536.4375 207.4375 C 537.070312 206.804688 538.101562 206.804688 538.734375 207.4375 L 540.617188 209.304688 L 546.09375 203.859375 C 546.730469 203.226562 547.757812 203.226562 548.394531 203.859375 C 549.03125 204.488281 549.03125 205.511719 548.394531 206.144531 L 541.765625 212.734375 C 541.460938 213.039062 541.046875 213.207031 540.613281 213.207031 Z M 540.613281 213.207031 "/>
<path style=" stroke:none;fill-rule:nonzero;fill:rgb(100%,100%,100%);fill-opacity:1;" d="M 374.847656 143.472656 C 373.96875 143.472656 373.109375 143.175781 372.421875 142.632812 C 371.597656 141.984375 371.074219 141.054688 370.953125 140.015625 C 370.832031 138.980469 371.121094 137.953125 371.769531 137.128906 C 383.785156 121.90625 401.792969 113.171875 421.183594 113.171875 C 439.691406 113.171875 457.175781 121.261719 469.160156 135.363281 C 470.558594 137.007812 470.359375 139.488281 468.707031 140.886719 C 468 141.488281 467.097656 141.816406 466.167969 141.816406 C 465.015625 141.816406 463.921875 141.3125 463.175781 140.433594 C 452.683594 128.089844 437.378906 121.007812 421.183594 121.007812 C 404.214844 121.007812 388.449219 128.652344 377.933594 141.984375 C 377.183594 142.929688 376.058594 143.472656 374.847656 143.472656 "/>
<g clip-path="url(#clip5)" clip-rule="nonzero">
<path style=" stroke:none;fill-rule:nonzero;fill:rgb(16.079712%,14.898682%,14.898682%);fill-opacity:1;" d="M 421.183594 112.105469 C 401.464844 112.105469 383.148438 120.988281 370.925781 136.472656 C 370.101562 137.515625 369.734375 138.820312 369.890625 140.144531 C 370.046875 141.464844 370.710938 142.648438 371.757812 143.46875 C 372.636719 144.160156 373.730469 144.542969 374.847656 144.542969 C 376.386719 144.542969 377.816406 143.851562 378.769531 142.640625 C 389.085938 129.570312 404.542969 122.078125 421.183594 122.078125 C 437.066406 122.078125 452.074219 129.019531 462.359375 141.125 C 463.308594 142.242188 464.699219 142.882812 466.167969 142.882812 C 467.347656 142.882812 468.496094 142.464844 469.398438 141.699219 C 471.496094 139.917969 471.753906 136.769531 469.976562 134.671875 C 457.785156 120.328125 440 112.105469 421.183594 112.105469 Z M 421.183594 114.242188 C 439.375 114.242188 456.5625 122.191406 468.339844 136.058594 C 469.363281 137.253906 469.214844 139.050781 468.015625 140.070312 C 467.476562 140.527344 466.820312 140.75 466.167969 140.75 C 465.359375 140.75 464.554688 140.40625 463.988281 139.738281 C 453.292969 127.15625 437.695312 119.941406 421.183594 119.941406 C 403.886719 119.941406 387.8125 127.734375 377.089844 141.320312 C 376.523438 142.035156 375.691406 142.40625 374.847656 142.40625 C 374.226562 142.40625 373.605469 142.207031 373.085938 141.796875 C 371.84375 140.820312 371.632812 139.03125 372.609375 137.792969 C 384.417969 122.824219 402.125 114.242188 421.183594 114.242188 "/>
</g>
<path style=" stroke:none;fill-rule:nonzero;fill:rgb(100%,100%,100%);fill-opacity:1;" d="M 387.644531 153.53125 C 386.765625 153.53125 385.90625 153.234375 385.21875 152.691406 C 383.519531 151.351562 383.222656 148.886719 384.5625 147.191406 C 393.46875 135.90625 406.816406 129.4375 421.1875 129.4375 C 435.105469 129.4375 448.1875 135.582031 457.085938 146.289062 C 457.75 147.097656 458.0625 148.113281 457.964844 149.15625 C 457.871094 150.199219 457.371094 151.140625 456.566406 151.804688 C 455.859375 152.390625 454.976562 152.710938 454.0625 152.710938 C 452.890625 152.710938 451.789062 152.191406 451.042969 151.292969 C 443.644531 142.378906 432.761719 137.269531 421.1875 137.269531 C 409.234375 137.269531 398.136719 142.652344 390.730469 152.039062 C 389.980469 152.988281 388.855469 153.53125 387.644531 153.53125 "/>
<path style=" stroke:none;fill-rule:nonzero;fill:rgb(16.079712%,14.898682%,14.898682%);fill-opacity:1;" d="M 421.1875 128.371094 C 406.488281 128.371094 392.832031 134.988281 383.726562 146.527344 C 382.023438 148.6875 382.394531 151.828125 384.554688 153.527344 C 385.433594 154.21875 386.527344 154.601562 387.644531 154.601562 C 389.183594 154.601562 390.613281 153.90625 391.566406 152.699219 C 398.769531 143.578125 409.5625 138.339844 421.1875 138.339844 C 432.445312 138.339844 443.023438 143.3125 450.21875 151.972656 C 451.171875 153.121094 452.570312 153.78125 454.0625 153.78125 C 455.222656 153.78125 456.355469 153.371094 457.246094 152.628906 C 458.273438 151.78125 458.910156 150.582031 459.03125 149.253906 C 459.15625 147.929688 458.757812 146.636719 457.90625 145.609375 C 448.808594 134.652344 435.425781 128.371094 421.1875 128.371094 Z M 421.1875 130.507812 C 434.785156 130.507812 447.570312 136.503906 456.257812 146.972656 C 457.265625 148.1875 457.097656 149.980469 455.882812 150.984375 C 455.351562 151.425781 454.707031 151.644531 454.0625 151.644531 C 453.242188 151.644531 452.429688 151.289062 451.863281 150.609375 C 444.261719 141.453125 433.082031 136.203125 421.1875 136.203125 C 408.902344 136.203125 397.496094 141.734375 389.886719 151.378906 C 389.324219 152.09375 388.488281 152.464844 387.644531 152.464844 C 387.027344 152.464844 386.402344 152.261719 385.875 151.851562 C 384.640625 150.878906 384.429688 149.089844 385.40625 147.847656 C 394.105469 136.824219 407.148438 130.507812 421.1875 130.507812 "/>
<path style=" stroke:none;fill-rule:nonzero;fill:rgb(100%,100%,100%);fill-opacity:1;" d="M 442.65625 161.773438 C 441.496094 161.773438 440.40625 161.269531 439.664062 160.390625 C 435.050781 154.945312 428.320312 151.828125 421.1875 151.828125 C 414.066406 151.828125 407.339844 154.9375 402.730469 160.367188 C 401.980469 161.25 400.890625 161.753906 399.734375 161.753906 C 398.8125 161.753906 397.90625 161.421875 397.203125 160.824219 C 396.402344 160.144531 395.914062 159.203125 395.828125 158.160156 C 395.738281 157.113281 396.066406 156.101562 396.746094 155.300781 C 402.84375 148.113281 411.753906 143.992188 421.1875 143.992188 C 430.628906 143.992188 439.546875 148.121094 445.652344 155.328125 C 447.046875 156.976562 446.839844 159.453125 445.191406 160.851562 C 444.484375 161.449219 443.585938 161.773438 442.65625 161.773438 "/>
<path style=" stroke:none;fill-rule:nonzero;fill:rgb(16.079712%,14.898682%,14.898682%);fill-opacity:1;" d="M 421.1875 142.921875 C 411.441406 142.921875 402.234375 147.183594 395.925781 154.613281 C 395.066406 155.625 394.652344 156.917969 394.761719 158.246094 C 394.871094 159.574219 395.492188 160.777344 396.507812 161.636719 C 397.410156 162.402344 398.558594 162.820312 399.734375 162.820312 C 401.207031 162.820312 402.59375 162.179688 403.546875 161.054688 C 407.949219 155.871094 414.378906 152.894531 421.1875 152.894531 C 428.003906 152.894531 434.4375 155.878906 438.84375 161.078125 C 439.792969 162.203125 441.183594 162.84375 442.65625 162.84375 C 443.832031 162.84375 444.980469 162.421875 445.882812 161.667969 C 447.984375 159.890625 448.246094 156.738281 446.46875 154.640625 C 440.160156 147.191406 430.945312 142.921875 421.1875 142.921875 Z M 421.1875 145.058594 C 430.3125 145.058594 438.933594 149.054688 444.835938 156.019531 C 445.851562 157.21875 445.703125 159.019531 444.5 160.035156 C 443.964844 160.484375 443.308594 160.707031 442.65625 160.707031 C 441.847656 160.707031 441.042969 160.363281 440.480469 159.699219 C 435.667969 154.015625 428.632812 150.757812 421.1875 150.757812 C 413.75 150.757812 406.726562 154.007812 401.914062 159.675781 C 401.347656 160.34375 400.542969 160.683594 399.734375 160.683594 C 399.085938 160.683594 398.429688 160.460938 397.890625 160.007812 C 396.6875 158.992188 396.542969 157.195312 397.5625 155.992188 C 403.457031 149.042969 412.070312 145.058594 421.1875 145.058594 "/>
<path style=" stroke:none;fill-rule:nonzero;fill:rgb(100%,100%,100%);fill-opacity:1;" d="M 433.597656 174.234375 C 433.597656 181.078125 428.042969 186.625 421.1875 186.625 C 414.332031 186.625 408.777344 181.078125 408.777344 174.234375 C 408.777344 167.386719 414.332031 161.839844 421.1875 161.839844 C 428.042969 161.839844 433.597656 167.386719 433.597656 174.234375 "/>
<g clip-path="url(#clip6)" clip-rule="nonzero">
<path style=" stroke:none;fill-rule:nonzero;fill:rgb(16.079712%,14.898682%,14.898682%);fill-opacity:1;" d="M 433.597656 174.234375 L 432.53125 174.234375 C 432.53125 177.359375 431.257812 180.183594 429.207031 182.242188 C 427.152344 184.292969 424.324219 185.554688 421.1875 185.554688 C 418.050781 185.554688 415.222656 184.292969 413.167969 182.242188 C 411.113281 180.183594 409.84375 177.359375 409.84375 174.234375 C 409.84375 171.101562 411.113281 168.277344 413.167969 166.222656 C 415.222656 164.171875 418.050781 162.90625 421.1875 162.90625 C 424.324219 162.90625 427.152344 164.171875 429.207031 166.222656 C 431.257812 168.277344 432.53125 171.101562 432.53125 174.234375 L 434.667969 174.234375 C 434.667969 166.792969 428.632812 160.769531 421.1875 160.769531 C 413.742188 160.769531 407.707031 166.792969 407.707031 174.234375 C 407.707031 181.667969 413.742188 187.691406 421.1875 187.691406 C 428.632812 187.691406 434.667969 181.667969 434.667969 174.234375 L 433.597656 174.234375 "/>
</g>
</g>
</svg>
