<svg width="885" height="629" viewBox="0 0 885 629" fill="none" xmlns="http://www.w3.org/2000/svg">
<g id="work-1 1" clip-path="url(#clip0)">
<g id="browser">
<path id="Vector" d="M884.595 0.390259H196.217V441.258H884.595V0.390259Z" fill="#E6E6E6"/>
<path id="Vector_2" d="M864.911 55.6861H215.901V415.177H864.911V55.6861Z" fill="white"/>
<path id="Vector_3" d="M884.301 0H195.923V29.2448H884.301V0Z" fill="#D72323"/>
<path id="Vector_4" d="M217.655 20.3718C220.649 20.3718 223.075 17.945 223.075 14.9515C223.075 11.9579 220.649 9.53119 217.655 9.53119C214.662 9.53119 212.235 11.9579 212.235 14.9515C212.235 17.945 214.662 20.3718 217.655 20.3718Z" fill="white"/>
<path id="Vector_5" d="M238.229 20.3718C241.223 20.3718 243.65 17.945 243.65 14.9515C243.65 11.9579 241.223 9.53119 238.229 9.53119C235.236 9.53119 232.809 11.9579 232.809 14.9515C232.809 17.945 235.236 20.3718 238.229 20.3718Z" fill="white"/>
<path id="Vector_6" d="M258.803 20.3718C261.797 20.3718 264.224 17.945 264.224 14.9515C264.224 11.9579 261.797 9.53119 258.803 9.53119C255.81 9.53119 253.383 11.9579 253.383 14.9515C253.383 17.945 255.81 20.3718 258.803 20.3718Z" fill="white"/>
<path id="Vector_7" d="M584.745 146.194C584.632 146.596 584.568 147.01 584.553 147.428L584.745 146.194Z" fill="#7F77FF"/>
<path id="Vector_8" d="M501.743 184.176C501.705 183.273 501.544 182.895 501.397 182.85C501.503 183.689 501.602 184.378 501.743 184.176Z" fill="#7F77FF"/>
<path id="Vector_9" d="M500.067 203.245C500.038 203.637 500.008 203.999 499.959 204.439C499.864 204.04 499.902 203.621 500.067 203.245V203.245Z" fill="#7F77FF"/>
<path id="Vector_10" d="M584.553 147.428L584.044 150.598C584.572 150.82 584.436 148.973 584.553 147.428Z" fill="#7F77FF"/>
<path id="Vector_11" d="M613.178 117.889L614.142 117.887C614.431 117.696 614.699 117.476 614.942 117.229L613.178 117.889Z" fill="#7F77FF"/>
<path id="Vector_12" d="M650.948 119.557C650.982 119.331 651.083 119.12 651.238 118.952C651.393 118.784 651.594 118.666 651.817 118.614C651.564 118.261 651.274 117.934 650.953 117.641C650.486 117.581 650.978 118.956 650.948 119.557Z" fill="#7F77FF"/>
<path id="Vector_13" d="M690.466 92.6207C690.592 92.6016 690.712 92.5827 690.808 92.5636L690.466 92.6207Z" fill="#7F77FF"/>
<path id="Vector_14" d="M689.678 92.7524L690.466 92.6207C690.205 92.6603 689.908 92.7016 689.678 92.7524Z" fill="#7F77FF"/>
<path id="Vector_15" d="M582.943 121.138C582.848 121.118 582.749 121.129 582.661 121.17C582.573 121.21 582.5 121.278 582.452 121.362C582.624 121.474 582.788 121.359 582.943 121.138Z" fill="#7F77FF"/>
<path id="Vector_16" d="M738.624 94.1635L738.697 94.8084C738.947 94.8876 739.206 94.9345 739.468 94.948L738.624 94.1635Z" fill="#7F77FF"/>
<path id="Vector_17" d="M497.024 226.404C497.034 226.404 497.034 226.414 497.014 226.433C497.014 226.443 497.004 226.453 496.995 226.463C496.995 226.482 496.848 226.502 496.74 226.521C496.686 226.506 496.63 226.496 496.574 226.492C496.721 226.473 496.868 226.443 496.985 226.433C497.004 226.414 497.014 226.404 497.024 226.404Z" fill="#7F77FF"/>
<path id="Vector_18" d="M386.87 377.914C383.014 376.685 393.146 376.336 387.34 374.97C387.881 375.509 382.063 377.115 386.87 377.914Z" fill="#7F77FF"/>
<path id="Vector_19" d="M417.695 244.152C417.56 244.484 417.353 244.781 417.089 245.023C417.382 244.377 417.549 244.182 417.695 244.152Z" fill="#7F77FF"/>
<path id="Vector_20" d="M474.785 229.271C474.256 229.255 473.729 229.197 473.21 229.095L474.785 229.271Z" fill="#7F77FF"/>
<path id="Vector_21" d="M397.264 249.009C396.727 248.905 396.175 248.905 395.637 249.01C395.749 249.08 395.868 249.136 395.993 249.177C396.394 249.01 396.833 248.952 397.264 249.009V249.009Z" fill="#7F77FF"/>
<path id="Vector_22" d="M397.264 249.009C397.468 249.045 397.682 249.086 397.954 249.12C397.727 249.068 397.496 249.031 397.264 249.009Z" fill="#7F77FF"/>
<path id="Vector_23" d="M363.557 249.128C363.739 249.233 363.98 249.312 364.191 249.405C364.532 249.382 364.93 249.355 365.281 249.331L363.557 249.128Z" fill="#7F77FF"/>
<path id="Vector_24" d="M392.11 250.052C392.107 250.075 392.099 250.097 392.085 250.116C392.071 250.135 392.053 250.15 392.032 250.16C392.071 250.101 392.11 250.052 392.11 250.052Z" fill="#7F77FF"/>
<path id="Vector_25" d="M733.009 375.919C732.787 375.899 732.567 375.881 732.324 375.855C732.58 375.888 732.803 375.907 733.009 375.919Z" fill="#7F77FF"/>
<path id="Vector_26" d="M471.85 230.161C472.202 230.094 472.546 229.993 472.877 229.858C473.591 230.044 472.613 230.034 471.85 230.161Z" fill="#7F77FF"/>
<path id="Vector_27" d="M742.283 344.349C742.274 344.349 742.267 344.354 742.259 344.354C742.267 344.392 742.275 344.381 742.283 344.349Z" fill="#7F77FF"/>
<path id="Vector_28" d="M741.283 223.787C741.336 223.555 741.391 223.294 741.456 222.975C741.393 223.25 741.34 223.517 741.283 223.787Z" fill="#7F77FF"/>
<path id="Vector_29" d="M743.053 327.991C743.159 327.757 743.308 327.545 743.493 327.365L743.63 327.854C743.737 326.849 743.67 325.833 743.434 324.851C743.647 323.546 743.772 322.229 743.806 320.908C744.843 320.35 744.364 315.311 744.422 312.885C743.053 313.08 743.268 309.959 742.162 312.807C742.24 312.64 742.289 313.472 742.348 314.959C742.369 315.308 742.419 315.655 742.495 315.996C742.456 315.947 742.417 315.889 742.368 315.83C742.397 317.425 742.426 319.509 742.465 321.876C741.531 319.795 741.344 317.455 741.937 315.253C741.057 314.01 740.147 312.63 739.726 311.857C741.644 308.531 742.681 302.113 743.855 301.222C743.092 293.796 743.346 283.729 740.763 279.052C740.43 276.938 741.507 276.625 741.918 275.833C742.172 277.056 742.133 278.504 742.505 279.169C741.839 274.942 742.25 266.655 740.44 265.648C741.252 260.325 742.103 268.642 741.81 261.323L742.358 262.311C745.195 248.173 738.014 239.231 741.282 223.782C741.154 224.359 741.037 224.702 740.822 224.858C742.456 206.679 739.286 187.385 741.878 169.442C742.397 164.344 741.252 163.786 740.372 160.675L741.849 159.57L740.147 154.247C738.894 146.704 743.767 141.185 741.409 131.626L740.411 132.859C740.607 129.425 739.824 121.989 740.969 122.566C740.668 122.241 740.461 121.839 740.372 121.404C740.282 120.97 740.312 120.519 740.46 120.101L741.233 119.993L739.902 111.559C740.46 105.034 742.974 112.587 743.121 103.047C742.828 99.5056 740.871 92.9601 740.352 94.2907C740.323 95.7192 739.873 97.9402 739.1 98.0478L738.699 94.8092C738.552 94.7701 738.415 94.731 738.268 94.6821V94.1635H736.869C736.578 94.04 736.265 93.9763 735.949 93.9763C735.633 93.9763 735.321 94.04 735.03 94.1635H699.954L700.336 93.782L699.181 94.1635H694.23C694.377 93.87 694.847 93.6254 695.825 93.508C692.225 92.5002 692.636 94.232 689.554 93.1068C689.211 92.9307 689.358 92.8328 689.681 92.7546L686.159 93.3612C686.853 92.9308 685.581 91.923 687.734 92.2165C681.433 91.0424 677.568 93.7428 675.191 92.1969L675.719 92.0795C669.174 92.5883 671.942 93.1656 671.003 94.1635H666.914L666.092 93.4787L664.986 92.559C664.61 92.213 664.2 91.905 663.763 91.6393C663.426 92.1117 663.125 92.6088 662.863 93.1264C661.845 93.0775 659.752 92.9699 659.849 92.3633C658.059 92.8818 658.431 93.0384 658.861 93.1949C659.331 93.3515 659.898 93.4982 659.174 93.9874C658.028 93.7165 656.858 93.556 655.681 93.508C655.554 95.6801 655.711 98.312 655.662 100.318C655.613 102.411 655.368 103.762 654.41 104.182C655.545 105.738 655.29 100.024 656.083 104.662C653.519 105.963 656.513 110.082 655.339 113.947C654.018 112.831 654.723 108.996 653.539 112.988C653.911 113.382 654.185 113.858 654.341 114.377C654.452 114.902 654.465 115.443 654.38 115.972C654.206 116.912 653.941 117.833 653.588 118.721C653.009 118.576 652.409 118.54 651.817 118.614C652.404 119.504 651.093 119.69 649.126 119.729C647.942 119.729 646.582 119.739 645.193 119.739C643.735 119.758 642.238 119.798 640.829 119.944C641.182 119.348 630.253 118.976 625.028 118.33L625.175 118.027C624.167 119.827 618.776 119.484 614.843 119.856C615 118.78 615.704 118.359 617.837 117.88L614.139 117.89C613.268 118.467 612.123 118.77 609.726 118.976L610.655 117.626C608.2 117.665 605.724 118.066 603.073 118.34C601.742 118.477 600.382 118.575 598.944 118.594C598.23 118.604 597.496 118.584 596.743 118.545C596.371 118.526 595.989 118.496 595.608 118.457C595.177 118.408 594.747 118.359 594.316 118.31C594.179 118.623 594.659 119.005 594.962 119.396C595.338 119.776 595.678 120.188 595.979 120.629C596.066 120.75 596.12 120.891 596.135 121.038C596.151 121.186 596.127 121.335 596.067 121.471H592.643C592.653 121.099 592.878 120.766 593.602 120.59C592.594 120.878 591.537 120.948 590.5 120.796C591.283 120.424 592.193 120.042 593.22 119.661C589.502 119.162 591.694 120.61 589.082 120.502C588.544 119.543 586.577 119.817 586.362 119.054C587.096 118.956 589.209 119.445 590.148 119.074C588.201 118.976 585.902 118.751 583.789 118.438C583.664 119.379 583.38 120.292 582.947 121.138C583.495 121.187 584.248 122.107 584.366 124.621C584.405 127.84 584.111 128.359 583.749 128.564C583.573 128.662 583.378 128.672 583.192 128.926C583.079 129.099 582.99 129.287 582.928 129.484C582.827 129.746 582.755 130.018 582.712 130.296C583.378 131.489 582.683 134.62 584.131 134.708C584.121 136.147 583.446 136.411 583.055 136.968C583.691 139.512 583.241 148.846 584.777 145.98L584.875 145.324C584.904 145.451 584.914 145.588 584.943 145.745C585.344 148.271 585.502 150.83 585.413 153.386C585.354 155.519 585.149 157.544 584.953 159.325C583.515 159.198 582.184 159.09 580.941 159.031C580.315 159.012 579.709 158.992 579.102 159.012L577.928 159.041C577.517 159.071 577.096 159.09 576.685 159.11L576.705 158.63C571.764 159.178 565.708 158.953 562.186 160C560.728 159.99 558.742 159.11 559.368 158.542C555.591 158.904 555.17 159.442 549.721 158.65C553.507 157.808 548.41 157.896 553.605 158.033C548.703 157.613 547.588 156.84 542.324 158.161C544.114 156.918 538.635 156.605 536.307 156.967L539.741 157.857C537.329 157.987 534.911 157.974 532.501 157.818L533.753 156.194C528.744 155.206 524.214 156.047 519.987 156.722C517.962 157.092 515.911 157.305 513.853 157.358L513.109 157.349L512.16 157.3C511.426 157.261 510.683 157.202 509.929 157.114C508.281 156.917 506.644 156.629 505.027 156.253C503.266 156.82 505.614 157.016 507.777 157.241C509.998 157.466 512.013 157.72 510.487 158.386C507.252 158.172 504.033 157.757 500.85 157.143C500.218 159.275 499.776 161.459 499.529 163.669C499.411 164.951 499.372 166.115 499.372 167.142C499.372 167.651 499.382 168.14 499.411 168.59C499.421 168.796 499.431 169.099 499.451 169.197C499.47 169.314 499.49 169.442 499.509 169.559C499.676 170.406 499.942 171.23 500.302 172.015C501.235 173.999 501.578 176.21 501.29 178.384C501.867 177.533 503.423 176.74 503.961 181.681C503.844 184.421 503.002 185.918 502.249 186.055C501.828 186.143 501.437 185.8 501.212 185.037C501.143 184.844 501.094 184.644 501.065 184.44C501.016 183.335 501.202 182.807 501.398 182.846C501.182 181.358 500.938 179.402 500.312 181.231L500.889 181.828C500.705 182.666 500.581 183.516 500.517 184.372C500.253 187.004 500.096 190.066 499.402 188.98C499.881 191.964 500.243 190.937 500.527 188.951C499.91 194.234 500.595 197.522 500.067 203.245C500.39 202.277 501.075 201.377 501.065 202.345C500.341 211.288 502.17 206.288 502.425 212.344C501.535 215.788 500.312 211.112 501.045 217.207C500.449 220.935 499.509 218 499.04 216.522C499.501 219.058 499.508 221.655 499.059 224.193C499.03 224.359 499.01 224.526 498.981 224.682C498.961 224.799 498.942 224.927 498.922 225.044L498.883 225.25C498.873 225.308 498.864 225.298 498.854 225.318L498.775 225.416C498.688 225.514 498.589 225.603 498.482 225.68C498.344 225.76 498.213 225.852 498.091 225.954C497.993 225.798 497.875 225.657 497.738 225.533C497.798 225.601 497.842 225.68 497.869 225.766C497.896 225.852 497.905 225.943 497.895 226.032C498.015 226.111 498.139 226.183 498.267 226.247C498.519 226.378 498.784 226.48 499.059 226.551C498.864 226.835 498.854 227.118 498.472 226.766C498.429 226.735 498.389 226.699 498.355 226.658C498.697 227.17 499.104 227.634 499.568 228.038C500.077 228.557 500.683 229.114 500.106 229.633C499.303 229.434 498.467 229.401 497.65 229.535C497.445 229.545 497.239 229.545 497.044 229.535C496.735 229.517 496.428 229.481 496.124 229.427C495.879 229.41 495.641 229.338 495.427 229.216C495.214 229.094 495.031 228.925 494.891 228.723C495.801 228.791 496.457 228.811 496.946 228.801C497.21 228.801 497.308 228.762 497.386 228.693C497.523 228.576 497.425 228.351 497.337 228.116C497.171 227.715 497.112 227.265 497.406 227.04C497.361 227.052 497.315 227.059 497.269 227.06C497.182 227.057 497.096 227.04 497.014 227.011C496.643 226.981 496.261 226.942 495.86 226.903C495.605 226.727 496.104 226.58 496.574 226.492C496.046 226.384 495.576 226.306 495.165 226.247C494.353 226.1 493.521 226.1 492.709 226.247C490.929 226.668 491.31 228.224 486.262 228.194C487.162 227.333 484.598 226.551 483.434 226.737C486.32 226.756 484.814 228.185 482.172 228.85C477.583 228.175 477.192 229.349 474.785 229.271L477.525 229.594C476.595 230.464 474.306 230.347 471.116 230.621C471.028 230.406 471.273 230.288 471.625 230.2C468.328 230.709 464.375 228.439 460.041 229.281C459.998 229.282 459.955 229.289 459.913 229.3C457.624 228.713 459.688 227.676 457.673 227.275C452.135 228.4 451.675 226.081 445.844 227.011C447.527 228.185 447.82 227.901 443.711 229.036L453.299 228.214L447.145 229.907C450.041 229.926 453.251 229.173 454.982 229.378C452.047 230.327 452.35 230.034 453.74 231.003C449.777 229.251 445.893 232.03 441.324 230.846L441.461 227.95C438.553 227.488 435.589 227.501 432.685 227.989L431.569 228.136L431.011 228.204L430.865 228.224L430.64 228.243L430.18 228.283C428.976 228.371 427.753 228.468 426.491 228.566C424.016 228.733 421.492 228.85 418.605 228.83C418.596 230.122 418.556 231.462 418.488 232.861L418.948 229.173L419.31 229.212C419.267 229.277 419.206 229.328 419.134 229.359C419.551 231.173 419.689 233.04 419.545 234.897C419.545 235.063 419.535 235.239 419.535 235.415V235.425C419.515 236.345 419.486 237.303 419.476 238.262C419.476 238.83 419.486 239.387 419.506 239.935C419.515 240.209 419.535 240.473 419.545 240.738L419.574 241.119L419.613 241.383C418.645 241.109 418.292 242.919 417.695 244.152C417.872 244.113 417.96 244.504 418.018 245.121C418.077 245.375 418.106 245.688 418.175 246.06C418.355 247.078 418.835 248.018 419.554 248.76C419.405 248.909 419.238 249.037 419.055 249.142C418.454 248.918 417.866 248.66 417.294 248.369C416.694 248.242 416.069 248.315 415.514 248.575C415.386 248.633 415.259 248.702 415.132 248.77C415.031 248.825 414.922 248.861 414.809 248.878C414.672 248.917 414.535 248.956 414.408 248.995C413.87 249.162 413.361 249.338 412.862 249.514C410.497 250.492 407.943 250.93 405.387 250.796C407.471 249.749 404.321 249.064 408.968 248.31C406.649 248.301 404.575 248.125 404.536 248.79C404.283 248.697 404.013 248.657 403.743 248.672C402.579 248.682 400.71 249.132 398.998 249.338C398.178 249.466 397.343 249.466 396.523 249.338C396.341 249.309 396.163 249.256 395.995 249.181C395.891 249.227 395.789 249.28 395.691 249.338C395.209 249.776 394.64 250.108 394.022 250.314C393.404 250.519 392.749 250.594 392.1 250.531C392.07 250.513 392.043 250.489 392.022 250.459C392.002 250.43 391.988 250.396 391.981 250.361C391.975 250.326 391.976 250.29 391.985 250.255C391.994 250.22 392.01 250.188 392.032 250.16C391.513 250.561 388.216 250.786 390.32 251.774C387.238 250.473 383.099 250.336 378.882 250.394C373.354 250.463 367.709 250.874 364.187 249.406C361.663 249.563 358.884 249.729 356.154 249.856C354.794 249.905 353.444 249.964 352.152 250.013C351.507 250.032 350.871 250.052 350.264 250.072C349.579 250.081 348.924 250.101 348.298 250.111C348.493 249.964 348.493 249.846 348.601 249.778C348.841 249.683 349.104 249.666 349.354 249.729C349.178 249.71 349.061 249.68 348.845 249.67C348.63 249.651 348.415 249.641 348.209 249.621C347.798 249.602 347.417 249.592 347.065 249.582C346.463 249.58 345.862 249.612 345.265 249.68C344.533 249.751 343.824 249.971 343.181 250.326C342.183 251.154 340.935 251.623 339.639 251.656C339.684 252.709 339.632 253.764 339.482 254.807C339.091 255.658 338.846 255.854 338.68 255.57C338.49 254.989 338.395 254.381 338.396 253.77C338.308 252.214 338.337 250.453 338.044 251.764C336.459 251.06 336.567 254.797 336.841 258.887C336.977 261.264 337.154 262.302 337.183 263.798C337.253 265.162 337.064 266.527 336.625 267.82L336.439 266.646C335.353 270.344 337.643 275.676 337.418 281.723C337.418 281.723 337.134 281.429 336.938 281.684C338.553 285.822 339.091 293.649 339.541 299.461C338.298 297.651 338.885 296.819 337.623 297.925C337.799 300.537 339.648 297.162 340.001 302.367C339.326 304.06 338.729 307.817 337.379 308.316L337.3 303.404C335.559 305.919 337.369 309.754 337.066 312.347L336.302 312.014C336.547 319.538 338.465 319.646 338.328 327.727L338.905 326.895C340.813 331.318 337.838 330.604 339.257 335.006L337.32 336.347C337.79 339.262 339.189 346.552 339.551 351.786C338.122 348.821 337.388 342.706 336.537 338.92C336.527 341.806 336.684 348.743 337.633 350.25C337.447 349.086 336.977 347.618 337.271 346.463C338.788 350.005 339.531 354.672 339.502 360.435C338.279 360.102 337.75 361.59 337.496 363.899C337.486 364.045 337.467 364.192 337.457 364.349C337.447 364.564 337.428 364.789 337.418 365.014C337.398 365.474 337.379 365.943 337.349 366.433C337.33 367.411 337.3 368.448 337.271 369.505C337.222 371.667 337.173 373.937 337.124 376.138C341.596 376.285 345.705 376.608 348.092 377.616L348.894 377.547L349.393 377.489L350.352 377.391C350.988 377.332 351.624 377.283 352.26 377.244C353.532 377.156 354.804 377.127 356.086 377.117C358.639 377.107 361.222 377.215 363.854 377.361C369.118 377.655 374.587 378.095 380.526 377.978C376.319 375.072 383.99 377.899 383.266 374.906C386.005 374.72 387.062 374.769 387.316 374.955L386.915 374.866C387.062 374.906 387.179 374.935 387.336 374.974V374.964L395.711 376.745C397.697 377.616 393.079 377.401 393.333 378.076C399.39 378.31 395.877 379.348 399.879 380.14C399.057 379.074 401.982 378.604 405.436 379.015L400.573 377.635C409.037 376.041 407.892 380.15 416.414 378.565L413.713 379.514C418.097 378.956 429.857 379.534 434.152 377.127C434.925 377.469 435.952 378.291 434.025 378.506C444.484 378.868 457.301 375.953 465.432 377.43L464.639 378.164C466.586 377.949 468.034 376.784 470.48 377.518C470.353 377.821 469.688 378.252 470.598 378.291C471.625 378.046 475.773 377.009 478.366 377.44L476.155 378.262C482.573 378.868 487.113 377.919 491.731 376.999C494.574 376.381 497.458 375.966 500.36 375.757C500.341 377.909 508.364 378.614 512.375 378.956L512.228 379.259C516.99 379.347 521.753 379.115 526.484 378.565C530.114 378.164 533.636 377.655 537.363 377.234H537.373C537.608 377.205 537.843 377.176 538.088 377.146C538.949 377.048 539.829 376.96 540.719 376.872C540.993 376.843 541.277 376.814 541.561 376.784C542.167 376.735 542.784 376.686 543.41 376.637C546.523 377.489 549.732 377.942 552.959 377.988C560.61 378.359 570.238 378.056 577.517 378.927C575.834 378.536 577.791 377.244 579.738 377.029C582.155 377.44 586.303 375.767 586.469 377.185C586.481 377.293 586.475 377.402 586.45 377.508L585.579 377.469H585.53L585.54 377.479C587.487 379.406 592.77 378.898 596.899 378.946L597.574 376.363C608.386 380.121 625.899 374.984 631.799 378.35C634.411 377.704 637.64 377.714 640.223 377.068L640.086 378.447C646.665 378.865 653.263 378.93 659.849 378.643L658.03 379.641C663.068 379.729 664.389 375.639 669.046 375.561L670.436 377.626C679.232 377.596 688.125 379.416 696.813 377.538C696.676 377.841 696.412 378.438 694.994 378.526C698.995 378.575 710.227 379.837 709.601 377.352C710.56 378.751 718.818 377.224 723.308 376.452L722.575 377.812C724.58 376.941 725.608 376.383 726.84 375.992C727.541 375.77 728.257 375.604 728.983 375.493C729.433 375.424 729.864 375.356 730.48 375.297C731.224 375.238 732.065 375.18 733.014 375.111C734.697 375.277 734.981 376.031 733.004 375.923C734.475 376.117 735.969 376.051 737.417 375.728C738.632 375.341 739.899 375.14 741.174 375.131C741.168 374.147 741.221 373.163 741.331 372.186C741.624 373.321 741.918 374.524 742.201 375.796C742.312 373.702 742.223 371.602 741.937 369.524C741.702 368.272 741.331 367.343 740.832 365.611C740.792 365.376 740.763 365.122 740.744 364.858C740.724 364.613 740.704 364.368 740.685 364.104C740.665 363.674 740.655 363.204 740.665 362.734C740.696 361.761 740.791 360.79 740.949 359.829C741.252 357.94 741.79 356.336 742.407 356.003C741.653 355.387 740.646 352.901 740.998 350.221C741.468 349.859 741.761 350.827 741.898 351.326C742.827 343.724 740.313 340.016 741.653 334.791C741.857 334.733 742.04 334.62 742.183 334.465C742.327 334.31 742.424 334.118 742.465 333.911C742.436 339.448 742.368 343.988 742.28 344.35C743.522 344.282 743.747 339.497 745.469 343.352C744.52 339.439 742.466 332.746 743.053 327.991ZM744.158 317.865C744.354 319.489 744.08 320.027 743.796 320.252C743.777 319.489 743.728 318.589 743.63 317.415C743.581 317.376 743.522 317.278 743.463 317.229C743.746 317.378 743.985 317.597 744.158 317.865V317.865ZM688.155 93.9483C688.319 94.001 688.477 94.0732 688.624 94.1635H686.55C687.049 94.0853 687.577 94.0168 688.155 93.9483V93.9483Z" fill="#D72323"/>
<path id="Vector_30" d="M497.65 226.923C497.587 226.992 497.499 227.034 497.406 227.04C497.48 226.987 497.563 226.948 497.65 226.923Z" fill="#7F77FF"/>
<path id="Vector_31" d="M471.625 230.204C471.701 230.193 471.776 230.174 471.852 230.159C471.773 230.173 471.697 230.188 471.625 230.204Z" fill="#7F77FF"/>
<path id="Vector_32" d="M742.351 314.959C742.303 314.739 742.27 314.516 742.251 314.292C742.129 314.623 742.026 314.937 741.941 315.257L742.372 315.83L742.351 314.959Z" fill="#7F77FF"/>
<path id="Vector_33" d="M584.745 146.194C584.783 146.033 584.849 145.879 584.941 145.742C584.874 145.886 584.831 145.886 584.777 145.978L584.745 146.194Z" fill="#7F77FF"/>
<path id="Vector_34" d="M653.125 92.5144C653.566 92.5251 654.066 93.1625 653.971 97.8439L654.265 92.0915L656.426 92.1957C654.681 91.6644 651.801 90.9502 655.788 90.8225C654.414 90.6623 653.366 90.5399 652.627 90.4536C652.3 93.2121 652.683 92.5265 653.125 92.5144Z" fill="#7F77FF"/>
<path id="Vector_35" d="M653.2 116.457C653.076 115.36 652.884 115.33 652.684 115.458C652.485 115.598 652.279 115.877 652.129 115.741C652.612 117.04 652.734 117.669 653.2 116.457Z" fill="#7F77FF"/>
<path id="Vector_36" d="M557.944 158.052L558.285 156.8C555.675 156.98 558.26 157.285 557.944 158.052Z" fill="#7F77FF"/>
<path id="Vector_37" d="M512.774 155.795L512.991 155.778L513.393 155.743L515 155.606L516.14 155.427L513.963 155.654L512.874 155.767L511.096 155.881L512.437 155.812L512.774 155.795Z" fill="#7F77FF"/>
<path id="Vector_38" d="M369.675 247.912L370.464 249.453C372.229 249.177 372.599 247.445 369.675 247.912Z" fill="#7F77FF"/>
<path id="Vector_39" d="M337.464 326.813C336.992 327.69 336.704 328.654 336.617 329.646C336.529 330.638 336.644 331.637 336.955 332.583C337.061 330.281 337.662 327.985 337.464 326.813Z" fill="#7F77FF"/>
<path id="Vector_40" d="M600.654 378.825L604.535 378.395L602.713 378.309L600.654 378.825Z" fill="#7F77FF"/>
<path id="Vector_41" d="M619.686 252.527C619.45 264.397 617.791 276.196 614.745 287.672C602.887 331.504 570.443 363.4 552.959 377.988C549.732 377.942 546.523 377.489 543.41 376.637C542.784 376.686 542.168 376.735 541.561 376.784C541.277 376.814 540.993 376.843 540.719 376.872C539.829 376.96 538.949 377.048 538.088 377.146C537.843 377.176 537.608 377.205 537.373 377.234H537.364C531.708 362.443 527.651 347.089 525.261 331.435L525.251 331.426V331.416C522.228 311.339 521.739 287.779 528.108 264.239C530.836 254.277 534.611 244.632 539.369 235.464C562.107 191.338 601.429 165.049 601.429 165.049C601.429 165.049 620.86 204.958 619.686 252.527Z" fill="white"/>
<path id="Vector_42" d="M500.067 203.245C500.038 203.637 500.008 203.999 499.959 204.439C499.864 204.04 499.902 203.621 500.067 203.245V203.245Z" fill="white"/>
<path id="Vector_43" d="M471.85 230.161C472.202 230.094 472.546 229.993 472.877 229.858C473.591 230.044 472.613 230.034 471.85 230.161Z" fill="white"/>
<path id="Vector_44" d="M473.21 229.095L474.785 229.271C474.256 229.255 473.729 229.197 473.21 229.095V229.095Z" fill="white"/>
<path id="Vector_45" d="M496.74 226.521C496.686 226.506 496.63 226.496 496.574 226.492C496.721 226.473 496.868 226.443 496.985 226.433C497.005 226.414 497.014 226.404 497.024 226.404C497.034 226.404 497.034 226.414 497.014 226.433C497.014 226.443 497.004 226.453 496.995 226.463C496.995 226.482 496.848 226.502 496.74 226.521Z" fill="white"/>
<path id="Vector_46" d="M497.65 226.923C497.587 226.992 497.499 227.034 497.406 227.04C497.48 226.987 497.563 226.948 497.65 226.923Z" fill="white"/>
<path id="Vector_47" d="M553.517 331.357C553.517 331.377 553.507 331.396 553.507 331.416C551.14 346.918 547.136 362.126 541.561 376.784C541.277 376.813 540.993 376.843 540.719 376.872C539.829 376.96 538.948 377.048 538.087 377.146C537.843 377.175 537.608 377.205 537.373 377.234H537.363C533.636 377.655 530.114 378.164 526.484 378.565C509.176 364.251 476.028 332.091 464.023 287.671C460.968 276.195 459.306 264.392 459.072 252.518C458.894 244.759 459.217 236.997 460.041 229.281C464.375 228.439 468.328 230.709 471.625 230.2C471.273 230.288 471.028 230.406 471.116 230.621C474.306 230.347 476.595 230.464 477.525 229.594L474.785 229.271C477.192 229.349 477.583 228.175 482.172 228.85C484.814 228.185 486.32 226.756 483.434 226.737C484.598 226.551 487.162 227.334 486.262 228.195C491.31 228.224 490.929 226.668 492.709 226.247H495.165C495.576 226.306 496.046 226.384 496.574 226.492C496.104 226.58 495.605 226.727 495.86 226.903C496.261 226.942 496.642 226.981 497.014 227.011C497.096 227.04 497.182 227.057 497.269 227.06C497.315 227.059 497.361 227.052 497.406 227.04C497.112 227.265 497.171 227.715 497.337 228.116C497.425 228.351 497.523 228.576 497.386 228.694C497.308 228.762 497.21 228.801 496.946 228.801C496.457 228.811 495.801 228.791 494.891 228.723C495.031 228.925 495.214 229.094 495.427 229.216C495.641 229.338 495.879 229.41 496.124 229.427C496.428 229.481 496.735 229.517 497.044 229.535C497.239 229.545 497.445 229.545 497.65 229.535C498.467 229.401 499.303 229.434 500.106 229.633C500.683 229.114 500.077 228.557 499.568 228.038C499.104 227.634 498.696 227.17 498.355 226.659C498.389 226.699 498.429 226.735 498.472 226.766C498.854 227.118 498.863 226.835 499.059 226.551C498.784 226.48 498.518 226.378 498.267 226.248H498.981V224.682C499.01 224.526 499.03 224.359 499.059 224.193C499.508 221.655 499.501 219.058 499.04 216.522C499.509 218 500.448 220.935 501.045 217.207C500.311 211.112 501.534 215.788 502.425 212.344C502.17 206.288 500.341 211.288 501.065 202.345C501.075 201.377 500.39 202.277 500.067 203.245C500.595 197.522 499.91 194.234 500.527 188.951C500.243 190.937 499.881 191.964 499.402 188.98C500.096 190.066 500.253 187.004 500.517 184.372C500.742 184.587 500.977 184.812 501.212 185.037C501.554 185.37 501.906 185.712 502.249 186.055C514.44 198.021 528.734 214.771 539.369 235.464C539.37 235.464 539.372 235.464 539.373 235.465C539.374 235.465 539.375 235.466 539.376 235.467C539.377 235.468 539.378 235.469 539.378 235.47C539.379 235.471 539.379 235.473 539.379 235.474C544.146 244.635 547.924 254.278 550.65 264.239C557.01 287.76 556.53 311.28 553.517 331.357Z" fill="white"/>
<path id="Vector_48" d="M417.695 244.152C417.56 244.484 417.353 244.781 417.089 245.023C417.382 244.377 417.549 244.182 417.695 244.152Z" fill="#3F3D56"/>
<path id="Vector_49" d="M392.11 250.052C392.107 250.075 392.099 250.097 392.085 250.116C392.071 250.135 392.053 250.15 392.032 250.16C392.071 250.101 392.11 250.052 392.11 250.052Z" fill="#3F3D56"/>
<path id="Vector_50" d="M538.088 377.146C537.843 377.175 537.608 377.205 537.373 377.234H537.364C533.636 377.655 530.114 378.164 526.484 378.565C521.753 379.115 516.99 379.347 512.228 379.259L512.375 378.956C508.364 378.614 500.341 377.909 500.361 375.757C497.458 375.966 494.574 376.381 491.731 376.999C470.568 370.111 445.922 358.449 425.758 338.822C397.335 311.163 384.508 274.209 378.882 250.394C383.099 250.336 387.238 250.473 390.32 251.774C388.216 250.786 391.514 250.561 392.032 250.16C392.01 250.188 391.994 250.22 391.985 250.255C391.976 250.29 391.975 250.326 391.981 250.361C391.988 250.396 392.002 250.43 392.022 250.459C392.043 250.489 392.07 250.513 392.101 250.531C392.749 250.594 393.404 250.519 394.022 250.314C394.64 250.108 395.209 249.776 395.691 249.338H403.744V248.672C404.013 248.657 404.283 248.697 404.536 248.79C404.575 248.125 406.649 248.301 408.968 248.31C404.321 249.064 407.471 249.749 405.387 250.796C407.943 250.93 410.497 250.492 412.862 249.514C413.361 249.338 413.87 249.162 414.408 248.995C414.535 248.956 414.672 248.917 414.809 248.878C414.922 248.861 415.032 248.825 415.132 248.77C415.259 248.702 415.386 248.633 415.514 248.575C416.069 248.315 416.694 248.243 417.294 248.369C417.866 248.66 418.454 248.918 419.055 249.142C419.238 249.037 419.405 248.909 419.555 248.76C418.835 248.018 418.355 247.078 418.175 246.06C418.106 245.688 418.077 245.375 418.018 245.121C417.96 244.504 417.872 244.113 417.695 244.152C418.292 242.919 418.645 241.109 419.613 241.383L419.574 241.119L419.545 240.738C419.535 240.473 419.515 240.209 419.506 239.935C419.486 239.387 419.476 238.83 419.476 238.262C419.486 237.303 419.515 236.345 419.535 235.425C433.311 239.628 446.573 245.361 459.072 252.518C469.702 258.611 479.538 265.995 488.356 274.502C506.006 291.683 517.639 312.445 525.251 331.416V331.425L525.261 331.435C531.161 346.169 535.461 361.494 538.088 377.146Z" fill="#3F3D56"/>
<path id="Vector_51" d="M585.53 377.469H585.579C585.567 377.476 585.554 377.479 585.54 377.479L585.53 377.469Z" fill="#3F3D56"/>
<path id="Vector_52" d="M704.024 226.531C704.024 226.531 698.467 294.569 653.01 338.822C632.66 358.635 607.759 370.327 586.469 377.185C586.303 375.767 582.155 377.44 579.738 377.029C577.791 377.244 575.834 378.535 577.517 378.927C570.238 378.056 560.61 378.359 552.959 377.988C549.732 377.942 546.523 377.489 543.41 376.637C542.784 376.686 542.168 376.735 541.561 376.784C541.277 376.813 540.993 376.843 540.719 376.872C543.355 361.289 547.646 346.031 553.517 331.357C561.148 312.405 572.782 291.663 590.403 274.512C599.219 266.004 609.055 258.619 619.686 252.527C660.407 228.909 704.024 226.531 704.024 226.531Z" fill="#3F3D56"/>
</g>
<g id="person">
<path id="Vector_53" d="M100.347 228.146L101.028 223.466L106.541 225.669L123.885 252.923L87.958 271.506L100.347 228.146Z" fill="#CFCCE0"/>
<path id="Vector_54" d="M4.37329 268.588L6.19429 321.06L34.6879 387.958C34.6879 387.958 27.2548 422.646 42.121 421.407C56.9872 420.168 43.3598 386.719 43.3598 386.719L29.7325 316.105L27.2548 257.879L4.37329 268.588Z" fill="#A0616A"/>
<path id="Vector_55" d="M12.3885 231.863H8.35687C8.35687 231.863 3.71655 234.34 3.71655 241.774C3.71655 249.207 0 271.506 0 271.506H19.8216L12.3885 231.863Z" fill="#CFCCE0"/>
<path id="Vector_56" d="M106.541 225.669L79.6818 214.938C79.6818 214.938 74.331 215.758 59.4648 216.997C44.5986 218.235 37.9977 217.067 37.9977 217.067C37.9977 217.067 6.19425 228.146 7.4331 234.34C8.67195 240.535 22.2993 338.404 28.4936 333.449C34.6878 328.493 38.4044 327.254 38.4044 327.254L106.541 321.06V225.669Z" fill="#CFCCE0"/>
<path id="Vector_57" d="M77.4282 559.539L77.2303 561.32C75.8979 572.669 72.2082 583.614 66.3977 593.454C63.6239 598.221 61.5001 603.607 62.562 607.854C65.0397 617.765 63.8009 621.481 63.8009 621.481H83.6225V617.765L94.6891 620.783C97.1568 621.495 99.7859 621.415 102.205 620.552C104.683 619.623 107.161 617.765 107.161 614.048C107.161 610.951 104.795 608.069 102.035 605.76C96.2153 600.988 91.9994 594.545 89.9555 587.302L89.8167 586.793L97.2499 559.539L77.4282 559.539Z" fill="#2F2E41"/>
<path id="Vector_58" d="M255.405 339.989C255.471 339.989 255.537 340.003 255.598 340.029C255.659 340.055 255.714 340.094 255.76 340.142C255.816 340.097 255.857 340.036 255.878 339.967C255.795 339.837 255.538 339.963 255.405 339.989Z" fill="#7F77FF"/>
<path id="Vector_59" d="M48.9346 243.632L33.9715 219.461C33.6307 218.91 33.1392 218.469 32.5552 218.19C31.9711 217.911 31.3192 217.805 30.6769 217.885L26.7749 218.373C26.2951 218.433 25.8337 218.595 25.4219 218.848C25.0101 219.102 24.6574 219.441 24.3877 219.842C24.118 220.243 23.9375 220.698 23.8584 221.175C23.7792 221.652 23.8034 222.14 23.9291 222.607L31.5907 251.065C31.5907 251.065 43.7049 301.337 32.073 328.233L31.5907 340.262C31.5907 340.262 20.4411 377.428 22.9187 405.921C25.3964 434.415 26.6353 459.192 26.6353 459.192C26.6353 459.192 20.441 477.775 22.9187 483.969C23.662 485.827 23.5134 488.577 22.941 491.517C19.4475 509.461 18.5456 527.814 19.0395 546.088L19.2022 552.106C19.2022 552.106 10.5302 559.539 17.9633 560.778C25.3965 562.017 48.9346 564.494 48.9346 564.494C48.9346 564.494 53.89 555.822 51.4123 554.583L58.8454 513.701C58.8454 513.701 71.2339 496.357 69.995 485.208C69.995 485.208 73.7116 466.625 69.995 457.953L71.2339 403.444L76.1893 469.103L68.7562 550.867C68.7562 550.867 58.8454 558.3 65.0396 560.778C71.2339 563.255 109.638 575.644 109.638 569.45C109.638 563.255 107.161 560.778 107.161 560.778L123.266 393.533L114.594 324.157C114.594 324.157 56.3676 319.202 61.3231 253.543C61.3231 253.543 75.5682 223.957 89.6305 218.374C89.7903 218.315 89.9272 218.206 90.0218 218.065C90.1164 217.923 90.1638 217.755 90.1574 217.585C90.1509 217.415 90.0908 217.251 89.9857 217.117C89.8806 216.983 89.7358 216.885 89.5721 216.838L83.8631 215.207C83.7076 215.161 83.5416 215.164 83.3879 215.216C80.9106 216.055 59.4319 223.804 48.9346 243.632Z" fill="#2F2E41"/>
<path id="Vector_60" d="M26.0158 560.158L25.818 561.939C24.4856 573.288 20.7958 584.234 14.9854 594.073C12.2115 598.841 10.0878 604.226 11.1497 608.473C13.6274 618.384 12.3885 622.101 12.3885 622.101H32.2101V618.384L43.2767 621.402C45.7444 622.115 48.3735 622.034 50.7929 621.172C53.2706 620.242 55.7483 618.384 55.7483 614.668C55.7483 611.571 53.3824 608.688 50.6223 606.38C44.803 601.607 40.5871 595.165 38.5431 587.922L38.4044 587.413L45.8375 560.158H26.0158Z" fill="#2F2E41"/>
<path id="Vector_61" d="M266.686 355.662L266.631 355.757C266.664 355.799 266.702 355.837 266.743 355.87L266.686 355.662Z" fill="#7F77FF"/>
<path id="Vector_62" d="M232.711 308.71C232.7 308.64 232.663 308.578 232.608 308.535L232.711 308.71Z" fill="#7F77FF"/>
<path id="Vector_63" d="M246.013 327.162C245.904 327.197 246.114 327.43 246.251 327.653L246.013 327.162Z" fill="#7F77FF"/>
<path id="Vector_64" d="M251.768 334.568L251.866 334.698C251.928 334.713 251.991 334.723 252.055 334.725L251.768 334.568Z" fill="#7F77FF"/>
<path id="Vector_65" d="M229.138 303.304L229.15 303.329C229.274 303.442 229.214 303.371 229.138 303.304Z" fill="#7F77FF"/>
<path id="Vector_66" d="M196.106 314.082C195.916 313.41 197 314.738 196.635 313.785C196.601 313.924 195.749 313.334 196.106 314.082Z" fill="#7F77FF"/>
<path id="Vector_67" d="M220.343 291.85C220.325 291.912 220.321 291.978 220.333 292.041C220.353 292.02 220.361 291.972 220.343 291.85Z" fill="#7F77FF"/>
<path id="Vector_68" d="M215.731 288.536C215.572 288.635 215.432 288.761 215.317 288.909C215.343 288.904 215.369 288.895 215.393 288.883C215.472 288.739 215.589 288.619 215.731 288.536V288.536Z" fill="#7F77FF"/>
<path id="Vector_69" d="M211.151 292.847C211.191 292.84 211.23 292.83 211.269 292.819L211.395 292.686L211.151 292.847Z" fill="#7F77FF"/>
<path id="Vector_70" d="M242.072 321.778L242.311 321.671C242.017 321.34 242.229 321.727 242.072 321.778Z" fill="#7F77FF"/>
<path id="Vector_71" d="M237.787 369.157C237.817 369.181 237.845 369.207 237.871 369.235C237.858 369.178 237.842 369.122 237.824 369.067L237.695 369.042L237.787 369.157Z" fill="#7F77FF"/>
<path id="Vector_72" d="M256.574 340.767C256.277 340.536 256.204 340.481 256.385 340.88C256.768 341.308 256.507 340.78 256.574 340.767Z" fill="#7F77FF"/>
<path id="Vector_73" d="M246.345 327.843C246.355 327.871 246.36 327.9 246.359 327.929C246.358 327.911 246.359 327.894 246.362 327.877L246.345 327.843Z" fill="#7F77FF"/>
<path id="Vector_74" d="M259.069 344.393C258.523 343.124 259.041 344.76 258.239 343.617L258.813 344.519C258.788 344.305 258.758 344.021 259.069 344.393Z" fill="#7F77FF"/>
<path id="Vector_75" d="M238.265 315.803L237.749 315.269L238.12 315.67L238.265 315.803Z" fill="#7F77FF"/>
<path id="Vector_76" d="M217.624 343.108L218.087 343.58L217.917 343.324L217.624 343.108Z" fill="#7F77FF"/>
<path id="Vector_77" d="M211.747 291.976L212.056 292.119C212.237 291.876 212.043 291.573 211.747 291.976Z" fill="#7F77FF"/>
<path id="Vector_78" d="M197.524 303.143C197.826 303.025 198.119 302.884 198.398 302.719C198.229 302.715 198.062 302.751 197.91 302.825C197.758 302.899 197.625 303.007 197.524 303.143V303.143Z" fill="#7F77FF"/>
</g>
<g id="hand">
<path id="Vector_79" d="M156.733 378.062L155.16 375.962L166.582 367.402C167.938 366.384 169.002 365.026 169.665 363.465C170.329 361.905 170.571 360.197 170.365 358.514L164.706 312.819C164.3 309.501 164.774 306.135 166.083 303.06C167.391 299.984 169.487 297.308 172.159 295.3L184.609 285.97C186.971 284.204 189.937 283.448 192.857 283.866C195.776 284.284 198.41 285.843 200.181 288.201L203.065 292.049L200.965 293.623L198.081 289.775C196.728 287.973 194.715 286.782 192.485 286.462C190.254 286.143 187.988 286.721 186.183 288.07L173.733 297.4C171.43 299.13 169.624 301.436 168.497 304.086C167.369 306.737 166.96 309.637 167.31 312.496L172.968 358.191C173.231 360.333 172.924 362.506 172.079 364.492C171.234 366.478 169.881 368.206 168.156 369.502L156.733 378.062Z" fill="#CFCCE0"/>
<path id="Vector_80" d="M160.807 381.935L170.12 369.67L166.972 365.471L153.009 371.529L92.0551 413.648L102.845 428.047L160.807 381.935Z" fill="#CFCCE0"/>
<path id="Vector_81" d="M204.709 285.43L192.95 294.242C189.736 296.65 189.083 301.208 191.491 304.423L246.049 377.229C248.458 380.443 253.016 381.096 256.23 378.687L267.989 369.875C271.204 367.467 271.857 362.909 269.448 359.695L214.89 286.888C212.481 283.674 207.923 283.021 204.709 285.43Z" fill="#E6E6E6"/>
<path id="Vector_82" opacity="0.2" d="M269.449 359.696L267.763 357.446L267.426 356.996C267.998 357.76 268.415 358.63 268.652 359.555C268.888 360.48 268.94 361.442 268.805 362.387C268.669 363.332 268.349 364.242 267.862 365.063C267.375 365.885 266.732 366.602 265.968 367.175L254.206 375.989C252.662 377.145 250.723 377.641 248.814 377.367C246.905 377.094 245.183 376.073 244.027 374.53L244.364 374.98L246.05 377.23C247.207 378.773 248.929 379.794 250.838 380.067C252.746 380.341 254.686 379.845 256.229 378.688L267.991 369.874C269.534 368.718 270.554 366.996 270.828 365.087C271.101 363.178 270.605 361.239 269.449 359.696V359.696Z" fill="black"/>
<path id="Vector_83" d="M234.56 311.631C234.458 311.531 234.372 311.449 234.369 311.494C234.467 311.612 234.532 311.643 234.56 311.631Z" fill="#7F77FF"/>
<path id="Vector_84" d="M266.957 355.891C266.801 356.079 266.498 356.323 266.361 356.241L266.631 355.757C266.612 355.735 266.594 355.709 266.576 355.685C266.593 355.662 266.611 355.641 266.628 355.618L262.744 350.436L262.845 350.442L262.667 350.332L262.174 349.675C262.237 349.662 262.317 349.681 262.434 349.797C262.234 349.187 261.993 349.455 261.863 348.899C261.857 348.832 261.889 348.841 261.934 348.873L261.478 348.472C261.618 348.513 261.654 348.217 261.825 348.545C261.378 347.548 260.544 347.356 260.556 346.846L260.63 346.902C259.882 346.08 260.067 346.525 259.811 346.521L259.396 345.967L259.502 345.248L259.17 345.315C259.088 345.186 258.925 344.931 259.056 344.902C258.548 344.573 259.008 345.059 258.652 344.914C258.434 344.159 257.334 343.371 257.623 342.946C257.28 342.874 257.902 343.616 257.302 343.085C257.587 342.592 256.687 342.413 256.476 341.732C256.816 341.735 257.083 342.33 256.873 341.648C256.265 341.598 256.169 340.542 255.76 340.141C255.453 340.338 254.9 339.247 254.234 338.56C253.838 337.753 253.392 336.973 252.897 336.224L252.961 336.208C252.565 336.291 252.074 335.52 251.615 335.034C251.806 334.924 251.947 334.967 252.242 335.196L251.866 334.698C251.617 334.607 251.399 334.446 251.241 334.233L251.555 334.194C250.89 333.561 250.301 332.853 249.799 332.084C249.635 332.156 249.659 332.63 249.441 332.683L249.102 332.231C249.152 332.209 249.208 332.205 249.261 332.218C249.314 332.23 249.361 332.26 249.396 332.301C249.324 332.235 249.097 332.094 249.028 331.902L249.485 332.124C249.275 331.673 249.176 332.037 248.96 331.712C249.123 331.6 248.9 331.397 249.059 331.348C249.134 331.416 249.198 331.669 249.349 331.741C249.119 331.415 248.966 331.039 248.904 330.644C248.837 330.742 248.691 330.804 248.478 330.562C247.969 329.906 248.498 330.192 248.289 329.744C248.058 329.665 247.854 329.156 247.61 329.322C247.465 329.126 247.548 329.008 247.556 328.885C247.194 328.619 246.322 327.3 246.362 327.876L246.411 327.977L246.359 327.929C245.279 326.977 244.738 325.486 243.798 324.444L243.879 324.386C243.361 323.745 242.794 323.145 242.184 322.59C242.036 322.393 241.979 322.016 242.137 322.03C241.712 321.68 241.372 321.238 241.141 320.738C241.663 321.148 241.13 320.47 241.636 321.189C241.207 320.474 241.221 320.229 240.472 319.679C240.856 319.77 240.352 318.989 240.056 318.719L240.259 319.292C239.993 318.982 239.75 318.653 239.531 318.309L239.925 318.279C239.232 316.679 237.539 316.245 237.307 314.805C236.852 314.586 237.729 315.641 237.27 315.483C236.992 314.909 236.763 314.312 236.587 313.699C236.094 312.733 235.6 313.192 235.031 312.222C235.022 312.407 234.849 312.705 234.258 312.104C233.825 311.452 234.081 311.037 234.453 311.374C234.573 311.518 234.597 311.613 234.56 311.631C234.746 311.807 234.985 312.041 234.903 311.717L234.747 311.707C234.612 311.324 233.958 310.472 234.265 310.557C233.82 310.153 233.958 310.472 234.17 310.859C233.708 309.954 233.236 309.604 232.711 308.71C232.757 308.88 232.736 309.085 232.639 308.953C231.85 307.655 232.059 308.556 231.404 307.767C231.199 307.193 231.874 307.675 231.134 306.941C230.855 306.363 231.307 306.645 231.534 306.787C231.001 306.226 230.586 305.563 230.314 304.838L230.687 305.177C230.495 304.996 230.323 304.797 230.172 304.581L230.152 304.95C230.011 304.692 229.864 304.495 229.946 304.44C229.642 304.294 229.768 304.86 229.241 304.512C229.106 304.13 228.431 303.646 228.602 303.35C229.247 304.389 228.775 303.052 229.434 303.847C229.258 303.675 229.111 303.476 228.999 303.257C229.001 303.201 229.076 303.251 229.138 303.304C228.664 302.202 228.531 303.089 227.813 302.117C228.047 302.134 227.914 301.691 227.766 301.556C228.055 301.948 227.668 301.92 227.292 301.645C226.938 300.942 226.705 301.032 226.474 300.698L226.7 301.108C226.464 301.088 226.25 300.765 225.882 300.366C225.964 300.246 226.252 300.701 226.185 300.511C225.576 300.218 225.631 299.233 224.961 298.69C224.825 298.308 225.206 298.46 225.067 298.139C224.321 297.527 224.653 297.181 223.91 296.507C223.89 296.877 223.966 296.882 223.364 296.466L224.469 297.661L223.569 297.038C223.859 297.431 224.307 297.773 224.45 298.032C223.997 297.752 224.075 297.757 224.057 298.063C223.943 297.313 223.095 297.127 222.825 296.364L223.312 296.029C222.826 294.941 221.832 294.558 221.046 293.262L221.254 293.711C220.945 293.69 220.67 292.985 220.3 292.652C220.486 292.569 220.36 292.282 220.333 292.042C220.231 292.15 219.682 291.15 219.284 291.276L219.088 290.581C218.488 289.603 217.681 289.642 216.898 288.486C217.063 288.526 217.059 288.373 217.089 288.278C217.122 288.188 217.192 288.159 217.603 288.578C217.231 288.078 216.895 287.571 216.866 287.759C216.839 287.697 216.805 287.638 216.765 287.584L216.696 287.495C216.67 287.468 216.638 287.543 216.607 287.567L216.185 288.087C215.978 288.404 215.708 288.674 215.393 288.883C215.254 289.14 215.299 289.385 214.892 289.759C214.822 289.772 214.832 289.682 214.832 289.682C214.85 289.804 214.394 290.284 214.821 290.181C213.531 290.565 212.407 292.518 211.269 292.819C210.682 293.435 209.957 294.159 209.379 294.669C209.378 294.592 209.317 294.593 209.44 294.513C208.516 295.066 209.316 295.375 208.25 295.994C207.571 296.144 208.634 295.45 208.26 295.604C207.717 295.211 207.198 296.609 206.32 296.816L206.449 296.663C205.832 296.882 205.42 297.8 204.583 298.38C204.583 298.38 204.588 298.304 204.529 298.298C203.954 299.138 203.25 299.882 202.442 300.501C202.543 300.118 202.726 300.134 202.424 300.032C202.088 300.315 202.771 300.294 202.098 300.86C201.785 300.912 201.2 301.178 200.972 300.994L201.638 300.51C201.093 300.466 200.772 301.127 200.377 301.319L200.335 301.159C199.326 301.91 199.518 302.236 198.364 302.953L198.545 302.976C198.125 303.706 197.901 303.119 197.423 303.756L197.027 303.536C196.398 304.148 195.727 304.717 195.02 305.238C195.489 304.654 196.01 304.113 196.577 303.624C196.007 303.915 195.491 304.303 195.054 304.771C195.204 304.641 195.368 304.433 195.564 304.389C195.096 305.055 194.462 305.589 193.726 305.937C193.655 305.545 192.814 305.925 191.796 306.423L191.411 306.611L191.215 306.707C191.152 306.739 191.049 306.763 191.133 306.829C191.29 307.053 191.44 307.275 191.573 307.487C191.809 307.818 191.977 308.193 192.067 308.59C192.282 308.834 192.495 309.076 192.708 309.318C192.85 309.481 192.985 309.648 193.116 309.82C193.377 310.165 193.62 310.527 193.863 310.901C194.349 311.649 194.832 312.443 195.452 313.232C195.501 312.306 195.816 313.691 196.232 313.226C196.539 313.571 196.638 313.719 196.634 313.779L196.597 313.687L196.635 313.785L196.636 313.784L197.192 315.134C197.251 315.51 196.818 314.859 196.734 314.976C197.31 315.823 196.784 315.475 197.06 316.114C197.152 315.872 197.524 316.211 197.807 316.728L197.54 315.902C198.658 316.851 197.871 317.198 198.993 318.159L198.565 317.909C199.1 318.433 200.198 320.095 201.026 320.38C201.048 320.527 201.018 320.766 200.787 320.532C201.788 321.991 203.565 323.367 204.147 324.648L203.947 324.63C204.179 324.868 204.516 324.921 204.643 325.342C204.581 325.362 204.444 325.325 204.529 325.452C204.897 325.703 205.212 326.025 205.456 326.398L205.097 326.2C205.974 327.697 207.012 328.072 207.961 329.168C207.606 329.429 208.305 330.6 208.654 331.185L208.59 331.203C209.697 332.581 210.896 333.882 212.18 335.097C212.49 336.307 214.365 338.346 215.262 339.991C215.156 339.716 215.565 339.822 215.798 340.059C215.987 340.461 216.763 340.839 216.399 341.026L216.312 340.897C216.192 341.397 216.813 342.049 217.223 342.615L217.715 342.39C218.195 344.313 220.811 346.052 220.858 347.262C221.228 347.536 221.554 347.974 221.922 348.244L221.681 348.395C222.28 349.336 222.938 350.237 223.653 351.093L223.306 350.968C223.802 351.66 224.604 351.339 225.089 351.958L224.892 352.4C225.788 353.585 226.393 355.011 227.58 355.956C227.516 355.974 227.392 356.012 227.234 355.83C227.645 356.396 228.628 358.167 228.94 357.615C228.648 357.856 229.829 358.864 230.444 359.407L230.146 359.474C230.706 359.659 231.202 360.001 231.574 360.459C231.679 360.66 231.513 360.75 231.392 360.469C231.723 361.154 231.952 360.776 232.376 361.59L232.031 361.426C232.125 361.603 232.253 361.76 232.408 361.886C232.563 362.012 232.742 362.106 232.934 362.162C233.314 362.482 233.752 363.371 233.619 363.613C233.793 363.643 233.958 363.713 234.1 363.82C234.242 363.926 234.356 364.064 234.434 364.223C234.394 364.329 234.248 364.233 234.175 364.184C234.794 365.325 235.58 365.518 235.891 366.389C235.865 366.418 235.846 366.454 235.839 366.493C235.831 366.531 235.834 366.572 235.848 366.609C235.241 365.788 234.76 365.121 234.823 365.17C234.617 365.324 235.076 366.011 234.398 365.699C235.156 366.164 235.819 366.769 236.351 367.481C236.357 367.527 236.355 367.574 236.343 367.62L236.27 367.57C236.355 367.72 236.47 367.85 236.608 367.952C236.705 368.154 236.817 368.348 236.945 368.531C236.833 368.734 237.421 369.356 237.659 369.691C237.864 369.496 238.15 369.954 238.034 369.411C238.057 369.475 237.96 369.369 237.787 369.157C237.748 369.112 237.705 369.071 237.659 369.034L237.695 369.042L237.067 368.235C237.243 368.315 237.402 368.429 237.532 368.572C237.662 368.715 237.761 368.884 237.824 369.066C238.095 369.127 238.383 369.201 238.531 369.254C238.555 369.939 239.035 370.934 238.932 371.2C239.372 371.655 239.836 372.231 240.302 372.733C240.527 372.977 240.766 373.208 241.016 373.426C241.248 373.675 241.526 373.877 241.835 374.02C241.962 374.14 242.052 374.295 242.093 374.465C242.133 374.611 242.196 374.597 242.269 374.637C242.198 374.681 242.122 374.714 242.042 374.738L241.894 374.575C241.822 374.485 241.736 374.409 241.638 374.349C241.836 374.481 241.97 374.965 242.356 374.659L243.35 374.255C243.582 374.169 243.803 374.057 244.009 373.922C244.153 373.822 244.245 373.723 244.252 373.621C245.158 373.44 243.896 374.129 245.04 373.609L244.923 373.776C247.479 373.392 248.225 371.367 250.941 370.709C250.752 370.76 250.658 370.787 250.594 370.751C253.508 369.524 255.814 367.064 258.474 365.488C259.216 365.009 259.117 364.751 259.393 364.266L259.736 364.362L260.17 363.494C260.908 362.423 262.293 362.459 263.061 360.926L262.767 360.941C263.201 360.545 263.908 359.48 264.024 359.711C264.012 359.634 264.025 359.555 264.06 359.486C264.096 359.417 264.153 359.361 264.223 359.327L264.354 359.417C264.602 358.997 264.83 358.564 265.067 358.14C265.857 357.349 265.456 358.685 266.491 357.419C266.816 356.898 267.181 355.773 266.957 355.891ZM261.584 348.813C261.591 348.841 261.594 348.87 261.592 348.899L261.394 348.633C261.456 348.691 261.516 348.746 261.584 348.813V348.813ZM237.328 368.981L237.375 368.987C237.316 369.001 237.255 369.001 237.197 368.985C237.001 368.79 236.99 368.684 237.014 368.619C237.095 368.719 237.194 368.835 237.328 368.982V368.981Z" fill="#D72323"/>
<path id="Vector_85" d="M89.854 264.872L91.675 317.343L120.169 384.241C120.169 384.241 112.735 418.929 127.602 417.69C142.468 416.452 128.841 383.003 128.841 383.003L115.213 312.388L112.735 254.162L89.854 264.872Z" fill="#A0616A"/>
</g>
<g id="head">
<path id="Vector_86" d="M62.1463 142.072C59.6815 143.005 57.5368 144.628 55.9674 146.745C54.5714 148.561 53.6416 150.691 53.2595 152.949C55.7243 152.015 57.869 150.393 59.4384 148.275C60.8344 146.46 61.7642 144.33 62.1463 142.072V142.072Z" fill="#D72323"/>
<path id="Vector_87" d="M64.4203 187.264C64.4203 187.264 50.7929 214.519 29.7324 220.713C8.67198 226.907 80.5253 220.713 80.5253 220.713C80.5253 220.713 76.8088 200.892 81.7642 198.414C86.7196 195.936 64.4203 187.264 64.4203 187.264Z" fill="#A0616A"/>
<path id="Vector_88" d="M42.4022 140.44C41.6611 133.983 45.1929 128.274 50.291 127.689C50.3487 127.682 50.4057 127.685 50.4634 127.68C49.8261 127.586 49.1794 127.576 48.5394 127.649C43.4414 128.234 39.9095 133.943 40.6506 140.4C41.3834 146.785 46.0194 151.501 51.051 151.042C46.7353 150.415 43.0489 146.075 42.4022 140.44Z" fill="#2F2E41"/>
<path id="Vector_89" d="M84.2419 205.847C99.2943 205.847 111.497 193.645 111.497 178.592C111.497 163.54 99.2943 151.337 84.2419 151.337C69.1895 151.337 56.9872 163.54 56.9872 178.592C56.9872 193.645 69.1895 205.847 84.2419 205.847Z" fill="#A0616A"/>
<path id="Vector_90" d="M89.7433 183.191C89.7433 183.191 109.267 171.911 116.828 171.228C116.828 171.228 119.029 166.272 116.655 161.503C116.655 161.503 115.503 146.204 96.4062 146.798C96.4062 146.798 73.8507 134.58 66.2785 139.568C58.7064 144.557 41.846 168.494 48.9679 182.801C48.9679 182.801 40.735 186.943 40.3433 184.713C39.9515 182.483 33.8354 188.473 41.9103 193.632C41.9103 193.632 30.6076 205.074 41.5945 212.235C41.5945 212.235 41.0917 202.087 47.4651 199.019C53.8385 195.951 48.2603 199.174 48.2603 199.174C48.2603 199.174 37.3494 212.845 53.6456 218.167C53.6456 218.167 47.5645 211.242 53.6807 205.253C53.6807 205.253 51.7861 219.242 63.0537 220.715C63.0537 220.715 57.2416 212.406 60.2997 209.411C60.2997 209.411 61.5977 219.714 67.9595 220.95L72.7308 221.878L74.3446 213.577C74.3446 213.577 69.8072 224.181 80.414 224.808C80.414 224.808 75.286 208.735 82.0746 199.287C88.8633 189.839 89.7433 183.191 89.7433 183.191Z" fill="#2F2E41"/>
<path id="Vector_91" d="M46.9717 149.196C40.8152 147.111 37.1585 141.481 38.8044 136.621C38.823 136.566 38.8502 136.516 38.8701 136.461C38.5135 136.998 38.228 137.578 38.0208 138.188C36.3749 143.048 40.0316 148.678 46.1882 150.763C52.2749 152.824 58.5184 150.643 60.2497 145.897C57.8416 149.533 52.3435 151.015 46.9717 149.196Z" fill="#2F2E41"/>
<path id="Vector_92" d="M59.4385 148.275C63.3629 143.094 63.2281 136.382 59.1375 133.284C55.0468 130.185 48.5494 131.874 44.625 137.056C40.7006 142.237 40.8354 148.949 44.9261 152.047C49.0167 155.146 55.5142 153.457 59.4385 148.275Z" fill="#2F2E41"/>
</g>
</g>
<defs>
<clipPath id="clip0">
<rect width="884.595" height="628.601" fill="white"/>
</clipPath>
</defs>
</svg>
