<svg id="Brand-v2" xmlns="http://www.w3.org/2000/svg" width="78.225" height="75.735" viewBox="0 0 78.225 75.735">
  <path id="Shape" d="M67.34-410a10.816,10.816,0,0,1-9.564-5.969l-5.817-11.213-4.89,9.513c-2.445,5.057-9.307,5.721-11.792.684L30.15-427.366l-7.73,15.047-9.268.062,11.082-22.094a6.213,6.213,0,0,1,11.161-.166l5.521,10.28L46.28-434.5a6.206,6.206,0,0,1,11.121-.021l7.513,14.26A2.692,2.692,0,0,0,70-421.625l.02-18.965c0-7.047-5.462-12.788-12.167-12.788H20.409c-6.7,0-12.167,5.741-12.167,12.788v32.872c0,7.047,5.462,12.788,12.167,12.788H70.653v8.664H20.409C9.15-386.265,0-395.882,0-407.717v-32.831C0-452.4,9.13-462,20.409-462H57.816c11.279,0,20.409,9.6,20.409,21.452v19.11A11.17,11.17,0,0,1,67.34-410Z" transform="translate(0 462)" fill="#d72323"/>
</svg>
