<svg width="903" height="827" viewBox="0 0 903 827" fill="none" xmlns="http://www.w3.org/2000/svg">
<g id="background" clip-path="url(#clip0)">
<path id="Vector" d="M160.64 243.762C177.555 197.465 203.952 155.211 238.141 119.705C267.148 89.5937 312.291 90.8449 312.291 90.8449L312.549 90.5249C323.414 77.1266 337.994 67.2352 354.459 62.0916C370.925 56.948 388.542 56.7813 405.102 61.6124C409.406 62.8476 412.717 63.395 414.292 62.8449C442.999 52.7978 441.65 30.1207 466.418 11.8521C509.785 -20.1351 653.629 16.5056 673.912 75.3658C690.351 123.071 763.732 146.193 791.148 182.683C795.435 188.389 799.641 194.161 803.766 199.999C805.7 202.711 807.612 205.444 809.503 208.197C828.927 236.325 846.352 265.783 861.65 296.352C871.682 316.324 880.401 336.93 887.751 358.036C916.342 441.619 906.565 503.891 827.73 488.507C818.398 486.681 809.29 485.047 800.406 483.605C787.542 481.506 775.127 479.781 763.16 478.43C747.045 476.597 731.714 475.396 717.166 474.828C712.275 474.631 707.473 474.499 702.761 474.432C633.091 473.466 581.412 486.578 542.042 506.934C535.368 510.375 529.044 514.017 523.069 517.857C513.943 523.691 505.229 530.146 496.989 537.176C485.586 546.961 475.071 557.736 465.566 569.373L465.044 570.013C418.996 626.339 403.841 688.694 371.81 699.673C234.883 746.614 148.283 576.454 139.402 409.999C138.954 401.612 138.706 393.248 138.659 384.908C138.631 381.18 138.65 377.463 138.714 373.755C138.855 364.081 139.281 354.47 139.995 344.975C140.262 341.345 140.571 337.733 140.923 334.142C141.311 330.268 141.733 326.418 142.221 322.592C145.704 294.545 151.798 267.861 160.64 243.762Z" fill="#00428D"/>
<g id="planets">
<path id="Vector_2" d="M571.639 146.2L569.182 145.661L569.72 143.203L568.082 142.844L567.543 145.302L565.086 144.764L564.727 146.402L567.184 146.941L566.646 149.398L568.284 149.757L568.823 147.299L571.28 147.838L571.639 146.2Z" fill="#E6E6E6"/>
<path id="Vector_3" d="M419.361 323.028C415.499 325.601 411.546 319.477 415.482 317.018C419.344 314.445 423.297 320.569 419.361 323.028Z" fill="#E6E6E6"/>
<path id="Vector_4" d="M693.361 253.028C689.499 255.601 685.546 249.477 689.482 247.018C693.344 244.445 697.297 250.569 693.361 253.028Z" fill="#E6E6E6"/>
<path id="Vector_5" d="M488.361 62.0283C484.499 64.6015 480.546 58.477 484.482 56.0181C488.344 53.445 492.297 59.5695 488.361 62.0283Z" fill="#E6E6E6"/>
<path id="Vector_6" d="M298.361 180.028C294.499 182.601 290.546 176.477 294.482 174.018C298.344 171.445 302.297 177.57 298.361 180.028Z" fill="#E6E6E6"/>
<path id="Vector_7" d="M171.542 350.978L169.085 350.439L169.623 347.982L167.985 347.623L167.446 350.08L164.988 349.542L164.629 351.18L167.087 351.719L166.549 354.177L168.187 354.535L168.726 352.078L171.183 352.616L171.542 350.978Z" fill="#E6E6E6"/>
<path id="Vector_8" d="M291.361 341.028C287.499 343.601 283.546 337.477 287.482 335.018C291.344 332.445 295.297 338.569 291.361 341.028Z" fill="#E6E6E6"/>
<path id="Vector_9" d="M291.361 563.028C287.499 565.601 283.546 559.477 287.482 557.018C291.344 554.445 295.297 560.569 291.361 563.028Z" fill="#E6E6E6"/>
<path id="Vector_10" d="M171.291 307.845C228.177 307.845 274.291 261.73 274.291 204.845C274.291 147.96 228.177 101.845 171.291 101.845C114.406 101.845 68.2914 147.96 68.2914 204.845C68.2914 261.73 114.406 307.845 171.291 307.845Z" fill="#FF6584"/>
<path id="Vector_11" d="M327.425 464.839C333.336 464.839 338.128 460.047 338.128 454.136C338.128 448.225 333.336 443.434 327.425 443.434C321.515 443.434 316.723 448.225 316.723 454.136C316.723 460.047 321.515 464.839 327.425 464.839Z" fill="#3F3D56"/>
<path id="Vector_12" d="M783.425 385.839C789.336 385.839 794.128 381.047 794.128 375.136C794.128 369.225 789.336 364.434 783.425 364.434C777.515 364.434 772.723 369.225 772.723 375.136C772.723 381.047 777.515 385.839 783.425 385.839Z" fill="#FF6584"/>
<path id="Vector_13" d="M486.425 741.002C497.949 741.002 507.291 731.66 507.291 720.136C507.291 708.612 497.949 699.27 486.425 699.27C474.901 699.27 465.559 708.612 465.559 720.136C465.559 731.66 474.901 741.002 486.425 741.002Z" fill="#F2F2F2"/>
<path id="Vector_14" d="M851.425 675.839C857.336 675.839 862.128 671.047 862.128 665.136C862.128 659.225 857.336 654.434 851.425 654.434C845.515 654.434 840.723 659.225 840.723 665.136C840.723 671.047 845.515 675.839 851.425 675.839Z" fill="#F2F2F2"/>
</g>
</g>
<defs>
<clipPath id="clip0">
<rect width="902.419" height="826.207" fill="white"/>
</clipPath>
</defs>
</svg>
