<svg width="409" height="702" viewBox="0 0 409 702" fill="none" xmlns="http://www.w3.org/2000/svg">
<g id="rocket-frame" clip-path="url(#clip0)">
<path id="Vector" d="M169.159 535.811L177.83 555.255C170.782 554.133 164.227 560.153 164.079 567.884C163.932 575.615 170.219 583.658 177.268 584.757C175.921 590.759 170.108 593.405 165.061 595.831C160.015 598.257 154.576 602.281 154.951 608.677C155.253 613.812 159.499 618.346 164.009 620.169C168.518 621.992 173.25 621.711 177.817 621.406C170.896 628.645 170.222 642.253 176.3 652.016C182.378 661.779 194.517 666.585 203.605 662.828C197.183 670.816 198.579 685.445 206.549 693.69C214.583 702.001 226.227 702.805 236.406 701.929C262.327 699.738 287.027 689.95 307.412 673.789C315.194 667.606 322.463 660.334 326.902 650.848C331.341 641.362 332.649 629.352 328.514 618.558C329.629 632.08 343.164 642.76 355.34 643.358C367.516 643.956 378.147 637.098 387.181 629.277C399.195 618.877 410.318 604.298 408.669 586.31C407.853 577.405 403.963 568.841 400.148 560.545L392.753 544.462C389.767 537.97 386.714 531.367 382.22 525.919C377.726 520.47 371.489 516.252 365.247 516.292C366.674 509.772 368.108 503.009 366.912 496.081C365.716 489.153 361.136 481.981 354.907 480.358C346.981 478.294 340.263 485.609 332.292 484.919C324.621 484.255 318.282 476.557 310.833 473.507C307.766 472.18 304.379 471.777 301.086 472.347C297.794 472.916 294.739 474.434 292.296 476.713C287.574 481.323 285.605 489.111 287.3 496.48C288.784 502.936 292.735 508.629 295.132 514.855C297.53 521.081 297.902 529.086 293.297 532.486C287.74 536.589 279.283 531.006 274.941 524.252C270.6 517.497 268.108 509.318 262.618 503.638C256.139 496.933 245.996 495.362 239.325 500.029C232.654 504.696 230.103 515.148 233.466 524.033C236.216 531.297 242.515 538.646 240.33 545.487C238.021 552.717 227.918 551.802 221.823 546.692C215.729 541.582 211.682 533.886 205.662 528.662C199.548 523.356 191.564 521.031 184.555 522.516C180.999 523.341 177.709 525.048 174.987 527.48C172.265 529.912 170.2 532.99 168.982 536.431" fill="#FFB23E"/>
<path id="Vector_2" d="M309.556 481.17L291.563 489.529C288.859 490.865 285.791 491.279 282.829 490.707C280.217 490.089 278.452 488.492 277.988 486.323L273.802 466.769C273.011 463.081 276.066 458.716 281.066 456.393L291.002 451.777C296.001 449.454 301.307 449.934 303.616 452.917L315.861 468.727C317.219 470.481 317.301 472.86 316.089 475.254C314.615 477.886 312.321 479.964 309.556 481.17V481.17Z" fill="#3F3D56"/>
<path id="Vector_3" d="M176.043 211.344C165.108 216.435 164.927 239.239 168.356 246.628L174.57 260.002L214.18 241.599L207.966 228.225C204.53 220.839 186.986 206.27 176.043 211.344Z" fill="#3F3D56"/>
<path id="Vector_4" d="M69.602 403.36C68.905 403.36 68.2183 403.191 67.6002 402.869C66.9821 402.547 66.4508 402.081 66.0513 401.51C65.6519 400.939 65.3962 400.28 65.3058 399.589C65.2154 398.898 65.2931 398.195 65.5322 397.54C65.726 397.005 66.0241 396.514 66.4091 396.095C66.7942 395.676 67.2586 395.338 67.7753 395.1L272.329 300.062C272.845 299.822 273.403 299.686 273.971 299.662C274.539 299.638 275.106 299.726 275.64 299.921C276.174 300.116 276.665 300.415 277.084 300.799C277.502 301.184 277.841 301.648 278.081 302.163C278.564 303.205 278.613 304.396 278.219 305.474C277.825 306.552 277.019 307.43 275.978 307.915H275.978L71.4243 402.953C70.8539 403.22 70.2318 403.359 69.602 403.36V403.36Z" fill="#3F3D56"/>
<path id="Vector_5" d="M229.609 250.128L171.138 277.294L262.859 474.708L321.33 447.541L229.609 250.128Z" fill="#E6E6E6"/>
<path id="Vector_6" d="M10.1138 1.61753C-0.821424 6.70866 -1.00163 29.5125 2.42727 36.9014L8.64114 50.2756L48.2505 31.8726L42.0366 18.4984C38.601 11.1126 21.057 -3.45636 10.1138 1.61753Z" fill="#3F3D56"/>
<path id="Vector_7" d="M255.129 503.864L237.136 512.224C234.431 513.559 231.364 513.973 228.402 513.401C225.79 512.783 224.025 511.186 223.561 509.018L219.374 489.464C218.584 485.775 221.639 481.411 226.638 479.088L236.575 474.471C241.574 472.149 246.88 472.628 249.189 475.611L261.433 491.422C262.791 493.175 262.874 495.554 261.661 497.949C260.188 500.581 257.894 502.659 255.129 503.864V503.864Z" fill="#3F3D56"/>
<path id="Vector_8" d="M199.81 531.31L181.817 539.669C179.113 541.005 176.045 541.419 173.083 540.847C170.471 540.229 168.706 538.632 168.242 536.464L164.056 516.909C163.265 513.221 166.32 508.856 171.319 506.534L181.256 501.917C186.255 499.594 191.561 500.074 193.87 503.057L206.115 518.868C207.473 520.621 207.555 523 206.342 525.394C204.869 528.027 202.575 530.104 199.81 531.31V531.31Z" fill="#3F3D56"/>
<path id="Vector_9" d="M79.2818 73.9822L20.8108 101.149L206.214 500.197L264.685 473.031L79.2818 73.9822Z" fill="#E6E6E6"/>
<path id="Vector_10" d="M139.951 279.691L133.39 265.254L137.167 263.512L143.708 277.903L238.423 487.909L234.65 489.662" fill="#3F3D56"/>
<path id="Vector_11" d="M213.951 267.691L207.39 253.254L211.167 251.512L217.708 265.903L312.423 475.909L308.65 477.662" fill="#3F3D56"/>
<path id="Vector_12" d="M106.88 105.917L27.6545 142.727C22.6105 134.879 7.40517 94.6663 10.8194 82.7353L8.25662 71.3576L62.9601 45.9416L70.2823 54.9489C81.1514 58.2838 102.311 96.0547 106.88 105.917Z" fill="#E6E6E6"/>
<path id="Vector_13" d="M65.246 46.4284L8.79508 72.6562C6.71146 73.6242 4.49248 73.2684 3.83884 71.8613C3.7451 71.6584 3.68687 71.4409 3.66673 71.2184L0.745095 40.0505C0.619995 38.7158 1.76178 37.2034 3.5062 36.3929L40.943 18.9994C42.6875 18.1889 44.5797 18.2917 45.519 19.248L67.4549 41.5817C68.5768 42.7239 67.9675 44.6792 66.094 45.9489C65.8246 46.1312 65.5411 46.2915 65.246 46.4284V46.4284Z" fill="#E6E6E6"/>
<path id="Vector_14" d="M109.522 290.617C108.911 290.619 108.302 290.547 107.708 290.404C106.871 290.23 106.085 289.867 105.409 289.343C104.734 288.818 104.188 288.146 103.812 287.378L69.2993 213.095C67.871 210.02 69.7885 206.088 73.5737 204.329L124.11 180.849C127.895 179.089 132.137 180.161 133.566 183.236L168.079 257.519C168.424 258.302 168.585 259.153 168.55 260.007C168.516 260.861 168.286 261.696 167.878 262.448C166.992 264.15 165.556 265.503 163.804 266.286L113.269 289.765C112.097 290.318 110.818 290.609 109.522 290.617Z" fill="#3F3D56"/>
<path id="Vector_15" d="M116.434 301.862L57.9625 329.028L149.683 526.441L208.154 499.275L116.434 301.862Z" fill="#E6E6E6"/>
<path id="Vector_16" d="M44.3981 49.6846L27.2512 57.6513C23.9424 59.1886 19.4784 56.6269 17.3015 51.9416C15.1247 47.2563 16.0458 42.1925 19.3547 40.6552L36.5016 32.6885C39.8104 31.1512 44.2744 33.7129 46.4513 38.3982C48.6281 43.0835 47.707 48.1473 44.3981 49.6846Z" fill="#3F3D56"/>
<path id="Vector_17" d="M64.0085 262.547C53.0732 267.638 52.8931 290.442 56.322 297.831L62.5358 311.205L102.145 292.802L95.9314 279.428C92.4958 272.042 74.9517 257.473 64.0085 262.547Z" fill="#3F3D56"/>
<path id="Vector_18" d="M266.429 331.436C264.384 332.383 262.047 332.481 259.931 331.707C257.814 330.933 256.091 329.352 255.139 327.309L245.027 305.544C244.08 303.5 243.984 301.164 244.758 299.048C245.533 296.933 247.115 295.212 249.158 294.263C251.201 293.314 253.537 293.215 255.653 293.987C257.769 294.759 259.492 296.339 260.444 298.381L270.556 320.146C271.504 322.191 271.601 324.528 270.827 326.645C270.054 328.761 268.472 330.484 266.429 331.436V331.436Z" fill="#3F3D56"/>
<path id="Vector_19" d="M94.4292 411.436C92.3844 412.383 90.0474 412.481 87.9308 411.707C85.8143 410.933 84.091 409.352 83.1391 407.309L73.0266 385.544C72.08 383.5 71.9835 381.164 72.7581 379.049C73.5328 376.933 75.1154 375.212 77.1582 374.263C79.201 373.314 81.5369 373.215 83.653 373.987C85.7691 374.759 87.4922 376.339 88.4438 378.381L98.5564 400.146C99.5035 402.191 99.6009 404.528 98.8272 406.645C98.0535 408.761 96.4719 410.484 94.4292 411.436Z" fill="#3F3D56"/>
<path id="Vector_20" d="M250.851 283.882L183.045 315.385C178.728 308.669 165.715 274.252 168.637 264.041L170.071 252.618L210.557 232.755L219.528 240.26C232.168 235.987 250.749 267.308 250.851 283.882Z" fill="#E6E6E6"/>
<path id="Vector_21" d="M219.371 281.697L202.224 289.664C198.915 291.201 193.881 287.411 191.002 281.217C188.124 275.022 188.475 268.73 191.784 267.193L208.931 259.226C212.239 257.689 217.274 261.479 220.152 267.673C223.03 273.868 222.68 280.16 219.371 281.697Z" fill="#3F3D56"/>
<path id="Vector_22" d="M73.951 322.691L67.39 308.254L71.167 306.512L77.708 320.903L172.423 530.909L168.65 532.662" fill="#3F3D56"/>
<path id="Vector_23" d="M138.817 335.085L71.0108 366.588C61.0077 361.423 45.7198 327.627 56.6023 315.244L58.0366 303.821L98.5227 283.958L107.494 291.463C116.797 294.317 134.906 326.644 138.817 335.085Z" fill="#E6E6E6"/>
<path id="Vector_24" d="M105.941 329.897L88.7943 337.864C85.4854 339.401 80.7638 336.285 78.2703 330.918C75.7769 325.551 76.4405 319.933 79.7493 318.396L96.8963 310.429C100.205 308.892 104.927 312.008 107.42 317.375C109.914 322.741 109.25 328.36 105.941 329.897Z" fill="#3F3D56"/>
<path id="Vector_25" d="M278.226 354.768L324.402 366.721L352.723 422.349L304.843 424.227L278.226 354.768Z" fill="#E6E6E6"/>
<path id="Vector_26" d="M171.645 274.574L197.059 300.002L261.606 439.557L249.722 449.824L171.645 274.574Z" fill="#CCCCCC"/>
<path id="Vector_27" d="M114.723 442.637L89.854 483.339L108.187 543.008L143.9 511.061L114.723 442.637Z" fill="#E6E6E6"/>
<path id="Vector_28" d="M116.386 297.624L118.38 333.52L179.304 474.694L194.88 472.688L116.386 297.624Z" fill="#CCCCCC"/>
</g>
<defs>
<clipPath id="clip0">
<rect width="409" height="702" fill="white"/>
</clipPath>
</defs>
</svg>
